<svg width="34" height="25" viewBox="0 0 34 25" fill="none" xmlns="http://www.w3.org/2000/svg">
<g clip-path="url(#clip0_361_48636)">
<path d="M30.0601 6.57071C30.0601 5.54326 30.7076 4.72832 31.5237 4.72832C32.3405 4.72832 32.9388 5.51803 32.9388 6.57071C32.9388 7.62263 32.3345 8.43757 31.5237 8.43757C30.7129 8.43757 30.0601 7.6104 30.0601 6.57071ZM27.2578 9.4398H28.4006V3.71386H27.2578V9.4398ZM27.0778 1.80343C27.0778 2.29805 27.4264 2.69864 27.8342 2.69864C28.2426 2.69864 28.5799 2.29805 28.5799 1.80343C28.5799 1.34551 28.2426 0.957157 27.8342 0.957157C27.4264 0.957157 27.0778 1.34551 27.0778 1.80343ZM22.5941 6.55772C22.5941 5.53026 23.2528 4.72832 24.0962 4.72832C24.9395 4.72832 25.5976 5.53026 25.5976 6.55772C25.5976 7.58518 24.9342 8.43757 24.0962 8.43757C23.2581 8.43069 22.5941 7.59817 22.5941 6.55772ZM21.4293 6.55772C21.4293 8.27473 22.6047 9.62786 24.0962 9.62786C25.587 9.62786 26.7624 8.27473 26.7624 6.55772C26.7624 4.84147 25.6089 3.53803 24.0962 3.53803C22.5834 3.53192 21.4293 4.84758 21.4293 6.55772ZM18.3388 9.4398H19.4816V6.43922C19.4816 5.24893 20.0308 4.72221 20.9452 4.72221C21.1139 4.72221 21.2447 4.7352 21.3642 4.76655V3.6076C21.2447 3.56326 21.0375 3.5258 20.8091 3.5258C19.2585 3.5258 18.3441 4.64729 18.3441 6.43234V9.4398H18.3388ZM13.7514 6.57071C13.7514 5.54326 14.3989 4.72832 15.215 4.72832C16.0311 4.72832 16.6301 5.51803 16.6301 6.57071C16.6301 7.62263 16.0258 8.43757 15.215 8.43757C14.4042 8.43757 13.7514 7.6104 13.7514 6.57071ZM12.5866 6.57071C12.5866 8.23039 13.7401 9.62786 15.1008 9.62786C15.6666 9.62786 16.1839 9.36411 16.494 8.93218H16.5431V9.44591H17.686V0.5H16.5431V4.18402H16.494C16.1945 3.77043 15.6779 3.53192 15.1008 3.53192C13.7348 3.53192 12.5866 4.91639 12.5866 6.57071ZM7.57496 9.4398H8.71781V6.08833C8.71781 5.28639 9.18598 4.72832 9.83344 4.72832C10.4809 4.72832 10.9491 5.29251 10.9491 6.08833V9.4398H12.0913V6.08833C12.0913 4.69086 11.1284 3.53192 9.83344 3.53192C8.53785 3.53192 7.57496 4.69086 7.57496 6.08833V9.4398ZM2.32355 6.00653L3.55871 1.94104H3.61848L4.8543 6.00653H2.32355ZM0 9.4398H1.29492L1.94238 7.30996H5.24609L5.89355 9.4398H7.17785L4.30445 0.5H2.8734L0 9.4398ZM31.4148 9.62786C31.9813 9.62786 32.4979 9.36411 32.808 8.93218H32.8571V9.44591H34V0.5H32.8571V4.18402H32.808C32.5092 3.77043 31.9919 3.53192 31.4155 3.53192C30.0442 3.53192 28.9013 4.91639 28.9013 6.56383C28.9013 8.21816 30.0548 9.62786 31.4155 9.62786H31.4148Z" fill="#939D2D"/>
<path d="M25.9464 24.0418C25.9411 23.9983 25.9358 23.9608 25.9298 23.9165C25.892 23.6596 25.8481 23.4035 25.7937 23.1466C25.7024 22.7075 25.5844 22.2762 25.4404 21.8562C25.3202 21.4984 25.1847 21.1544 25.032 20.8219C24.8361 20.396 24.6183 19.9825 24.3739 19.588C24.0744 19.1056 23.7424 18.6607 23.3831 18.241C23.2311 18.0659 23.073 17.897 22.9096 17.7403C22.5564 17.3894 22.1805 17.0698 21.7834 16.7877C21.7887 16.7816 21.7887 16.7755 21.794 16.7686C21.974 16.4055 22.1586 16.0485 22.3386 15.6853C22.5179 15.3344 22.6918 14.9835 22.8718 14.6265C22.9966 14.3758 23.1275 14.1189 23.2523 13.8682C23.2855 13.8055 23.3068 13.7497 23.3234 13.6801C23.3725 13.5051 23.3778 13.317 23.334 13.1419C23.3234 13.0976 23.3127 13.054 23.2961 13.0165C23.2795 12.9722 23.2636 12.9348 23.2417 12.8973C23.1766 12.7658 23.0783 12.6527 22.9535 12.5716C22.8446 12.4967 22.725 12.4524 22.5995 12.4401C22.5451 12.434 22.4959 12.434 22.4415 12.4401C22.3983 12.4462 22.3545 12.4524 22.3166 12.4654C22.1646 12.5089 22.0284 12.603 21.9195 12.7406C21.881 12.791 21.8432 12.8476 21.8159 12.9034C21.6911 13.1542 21.5603 13.411 21.4354 13.6618L20.9022 14.7206C20.7222 15.0837 20.537 15.4407 20.3577 15.8038C20.3357 15.8421 20.3198 15.8856 20.2979 15.9231C20.2707 15.9109 20.2434 15.8979 20.2162 15.8856C19.2148 15.4468 18.1317 15.2091 16.9948 15.2091H16.9019C15.9198 15.2201 14.9457 15.4148 14.0179 15.7855C13.9149 15.8291 13.8113 15.8734 13.7077 15.917C13.6918 15.8795 13.6699 15.8421 13.6533 15.8038C13.474 15.4407 13.2887 15.0837 13.1094 14.7206C12.9295 14.3697 12.7555 14.0188 12.5762 13.6618C12.4507 13.411 12.3205 13.1542 12.195 12.9034C12.1625 12.8407 12.1299 12.791 12.0914 12.7406C11.9849 12.6066 11.847 12.511 11.6943 12.4654C11.6511 12.4524 11.6073 12.4462 11.5695 12.4401C11.515 12.434 11.4659 12.434 11.4114 12.4401C11.2866 12.4524 11.1664 12.4967 11.0581 12.5716C10.9403 12.6515 10.8411 12.7633 10.7693 12.8973C10.7473 12.9348 10.7314 12.9722 10.7148 13.0165C10.6989 13.0601 10.6876 13.0976 10.677 13.1419C10.6384 13.317 10.6384 13.4989 10.6876 13.6801C10.7042 13.7428 10.7314 13.8055 10.7586 13.8682C10.8835 14.1189 11.0143 14.3758 11.1391 14.6265C11.3191 14.9774 11.4931 15.3283 11.6724 15.6853C11.8523 16.0485 12.037 16.4055 12.2169 16.7686L12.2222 16.7755C11.8577 17.0385 11.5097 17.3267 11.1777 17.6462C10.9818 17.8343 10.7912 18.0346 10.6112 18.241C10.2466 18.6546 9.92059 19.1056 9.62109 19.588C9.37606 19.9825 9.15824 20.3899 8.96301 20.8219C8.81027 21.1544 8.67414 21.4984 8.55461 21.8554C8.41316 22.2751 8.29363 22.7078 8.20066 23.1466C8.14621 23.3966 8.10305 23.6535 8.06453 23.9165C8.05922 23.9608 8.05391 23.9983 8.04859 24.0418C8.02668 24.1924 8.01008 24.343 7.99414 24.4998H25.9789C25.9789 24.343 25.963 24.1924 25.9464 24.0418Z" fill="#34A853"/>
<path d="M21.6787 21.6302C22.0379 21.355 22.0924 20.7159 21.7929 20.2082C21.4994 19.6945 20.9661 19.5072 20.6069 19.7824C20.2476 20.0584 20.1932 20.6967 20.4927 21.2044C20.7868 21.7181 21.3201 21.9061 21.6787 21.6302ZM13.5273 21.2105C13.8208 20.6967 13.7724 20.0645 13.4131 19.7885C13.0538 19.5133 12.5206 19.7014 12.2264 20.2151C11.9329 20.7281 11.982 21.3611 12.3406 21.637C12.6999 21.9123 13.2278 21.7181 13.5273 21.2105Z" fill="#939D2D"/>
</g>
<defs>
<clipPath id="clip0_361_48636">
<rect width="34" height="24" fill="white" transform="translate(0 0.5)"/>
</clipPath>
</defs>
</svg>
