<svg width="30" height="30" viewBox="0 0 30 30" fill="none" xmlns="http://www.w3.org/2000/svg">
<path d="M7 25.7831H10.4804C10.9342 25.7831 11.3852 25.8371 11.8251 25.945L15.5025 26.8387C16.3005 27.0331 17.1317 27.052 17.938 26.8954L22.004 26.1043C23.0781 25.8951 24.0661 25.3808 24.8405 24.6275L27.7172 21.8291C28.5387 21.0313 28.5387 19.7368 27.7172 18.9376C26.9775 18.2181 25.8063 18.1371 24.9695 18.7473L21.6168 21.1933C21.1366 21.5443 20.5524 21.7333 19.9515 21.7333H16.714L18.7748 21.7332C19.9363 21.7332 20.8771 20.818 20.8771 19.6881V19.279C20.8771 18.3409 20.2208 17.5228 19.2854 17.296L16.1048 16.5225C15.5872 16.397 15.0571 16.3335 14.5242 16.3335C13.2378 16.3335 10.9092 17.3986 10.9092 17.3986L7 19.0334M1.66667 18.4669L1.66667 26.2002C1.66667 26.9469 1.66667 27.3203 1.81199 27.6055C1.93982 27.8564 2.1438 28.0604 2.39468 28.1882C2.6799 28.3335 3.05326 28.3335 3.8 28.3335H4.86667C5.6134 28.3335 5.98677 28.3335 6.27199 28.1882C6.52287 28.0604 6.72685 27.8564 6.85468 27.6055C7 27.3203 7 26.9469 7 26.2002V18.4669C7 17.7201 7 17.3467 6.85468 17.0615C6.72685 16.8107 6.52287 16.6067 6.27199 16.4788C5.98677 16.3335 5.61341 16.3335 4.86667 16.3335H3.8C3.05327 16.3335 2.6799 16.3335 2.39468 16.4788C2.1438 16.6067 1.93982 16.8106 1.81199 17.0615C1.66667 17.3467 1.66667 17.7201 1.66667 18.4669ZM21.9218 3.78986C21.1261 2.12472 19.2914 1.24257 17.5072 2.09402C15.723 2.94547 14.9629 4.96469 15.7099 6.73729C16.1716 7.8328 17.4943 9.96019 18.4375 11.4256C18.7859 11.967 18.9602 12.2377 19.2147 12.3961C19.433 12.5319 19.7062 12.6052 19.9632 12.5967C20.2628 12.5868 20.549 12.4394 21.1215 12.1448C22.671 11.3473 24.8802 10.1663 25.8278 9.44835C27.361 8.28674 27.7408 6.15162 26.5929 4.52851C25.445 2.90539 23.4435 2.74568 21.9218 3.78986Z" stroke="#939D2D" stroke-width="2" stroke-linecap="round" stroke-linejoin="round"/>
</svg>
