<svg width="61" height="60" viewBox="0 0 61 60" fill="none" xmlns="http://www.w3.org/2000/svg">
<circle cx="30.5" cy="30" r="30" fill="#939D2D"/>
<path d="M40.6663 30.6666V23.0666C40.6663 20.8264 40.6663 19.7063 40.2304 18.8507C39.8469 18.098 39.2349 17.4861 38.4823 17.1026C37.6267 16.6666 36.5066 16.6666 34.2663 16.6666H25.733C23.4928 16.6666 22.3727 16.6666 21.517 17.1026C20.7644 17.4861 20.1525 18.098 19.769 18.8507C19.333 19.7063 19.333 20.8264 19.333 23.0666V36.9333C19.333 39.1735 19.333 40.2936 19.769 41.1493C20.1525 41.9019 20.7644 42.5138 21.517 42.8973C22.3727 43.3333 23.4928 43.3333 25.733 43.3333H29.9997M32.6663 28.6666H24.6663M27.333 34H24.6663M35.333 23.3333H24.6663M33.333 39.3333L35.9997 42L41.9997 36" stroke="white" stroke-width="2.5" stroke-linecap="round" stroke-linejoin="round"/>
</svg>
