<svg width="47" height="52" viewBox="0 0 47 52" fill="none" xmlns="http://www.w3.org/2000/svg">
<path d="M38.3636 6.72721C38.1591 6.72721 37.9546 6.67621 37.7757 6.57421C32.868 4.04971 28.6249 2.97871 23.5383 2.97871C18.4773 2.97871 13.6719 4.17721 9.30099 6.57421C8.68753 6.90571 7.9207 6.67621 7.56285 6.06421C7.23056 5.45221 7.46061 4.66171 8.07407 4.33021C12.8284 1.75471 18.0428 0.428711 23.5383 0.428711C28.9828 0.428711 33.7371 1.62721 38.9515 4.30471C39.5905 4.63621 39.8206 5.40121 39.4883 6.01321C39.2582 6.47221 38.8237 6.72721 38.3636 6.72721ZM1.78611 20.1147C1.53051 20.1147 1.2749 20.0382 1.04485 19.8852C0.456953 19.4772 0.329148 18.6867 0.738121 18.1002C3.26864 14.5302 6.4893 11.7252 10.3234 9.76171C18.3495 5.63071 28.6249 5.60521 36.6766 9.73621C40.5107 11.6997 43.7314 14.4792 46.2619 18.0237C46.6709 18.5847 46.5431 19.4007 45.9552 19.8087C45.3673 20.2167 44.5749 20.0892 44.1659 19.5027C41.8654 16.2897 38.9515 13.7652 35.5008 12.0057C28.1648 8.25721 18.784 8.25721 11.4737 12.0312C7.99739 13.8162 5.08346 16.3662 2.78298 19.5792C2.5785 19.9362 2.19509 20.1147 1.78611 20.1147ZM17.7616 50.8932C17.4293 50.8932 17.097 50.7657 16.867 50.5107C14.6432 48.2922 13.4418 46.8642 11.7293 43.7787C9.96557 40.6422 9.04538 36.8172 9.04538 32.7117C9.04538 25.1382 15.5378 18.9672 23.5128 18.9672C31.4877 18.9672 37.9802 25.1382 37.9802 32.7117C37.9802 33.4257 37.4179 33.9867 36.7021 33.9867C35.9864 33.9867 35.4241 33.4257 35.4241 32.7117C35.4241 26.5407 30.0819 21.5172 23.5128 21.5172C16.9437 21.5172 11.6015 26.5407 11.6015 32.7117C11.6015 36.3837 12.4194 39.7752 13.9786 42.5292C15.6145 45.4617 16.7392 46.7112 18.7074 48.7002C19.193 49.2102 19.193 50.0007 18.7074 50.5107C18.4262 50.7657 18.0939 50.8932 17.7616 50.8932ZM36.0887 46.1757C33.047 46.1757 30.3631 45.4107 28.1648 43.9062C24.3563 41.3307 22.0814 37.1487 22.0814 32.7117C22.0814 31.9977 22.6437 31.4367 23.3594 31.4367C24.0751 31.4367 24.6375 31.9977 24.6375 32.7117C24.6375 36.3072 26.4778 39.6987 29.5962 41.7897C31.4111 43.0137 33.5326 43.6002 36.0887 43.6002C36.7021 43.6002 37.7246 43.5237 38.747 43.3452C39.4371 43.2177 40.1017 43.6767 40.2295 44.3907C40.3573 45.0792 39.8972 45.7422 39.1815 45.8697C37.7246 46.1502 36.4465 46.1757 36.0887 46.1757ZM30.951 51.4287C30.8487 51.4287 30.7209 51.4032 30.6187 51.3777C26.5545 50.2557 23.8962 48.7512 21.1101 46.0227C17.5316 42.4782 15.5634 37.7607 15.5634 32.7117C15.5634 28.5807 19.0908 25.2147 23.4361 25.2147C27.7814 25.2147 31.3088 28.5807 31.3088 32.7117C31.3088 35.4402 33.686 37.6587 36.6255 37.6587C39.565 37.6587 41.9421 35.4402 41.9421 32.7117C41.9421 23.0982 33.6349 15.2952 23.4105 15.2952C16.1513 15.2952 9.50547 19.3242 6.51486 25.5717C5.51799 27.6372 5.00677 30.0597 5.00677 32.7117C5.00677 34.7007 5.1857 37.8372 6.71935 41.9172C6.97495 42.5802 6.64266 43.3197 5.97808 43.5492C5.3135 43.8042 4.57224 43.4472 4.34219 42.8097C3.08971 39.4692 2.47625 36.1542 2.47625 32.7117C2.47625 29.6517 3.06415 26.8722 4.21439 24.4497C7.61397 17.3352 15.1544 12.7197 23.4105 12.7197C35.0407 12.7197 44.4982 21.6702 44.4982 32.6862C44.4982 36.8172 40.9708 40.1832 36.6255 40.1832C32.2801 40.1832 28.7527 36.8172 28.7527 32.6862C28.7527 29.9577 26.3756 27.7392 23.4361 27.7392C20.4966 27.7392 18.1195 29.9577 18.1195 32.6862C18.1195 37.0467 19.8065 41.1267 22.8993 44.1867C25.3276 46.5837 27.6536 47.9097 31.2577 48.9042C31.9478 49.0827 32.3313 49.7967 32.1523 50.4597C32.0245 51.0462 31.4877 51.4287 30.951 51.4287Z" fill="#6A7513"/>
</svg>
