<svg width="24" height="28" viewBox="0 0 24 28" fill="none" xmlns="http://www.w3.org/2000/svg">
<path d="M7.99999 12L10.6667 14.6667L16.6667 8.66667M22.6667 26V8.4C22.6667 6.15979 22.6667 5.03969 22.2307 4.18404C21.8472 3.43139 21.2353 2.81947 20.4826 2.43597C19.627 2 18.5069 2 16.2667 2H7.73333C5.49312 2 4.37301 2 3.51737 2.43597C2.76472 2.81947 2.1528 3.43139 1.7693 4.18404C1.33333 5.03969 1.33333 6.15979 1.33333 8.4V26L4.99999 23.3333L8.33333 26L12 23.3333L15.6667 26L19 23.3333L22.6667 26Z" stroke="#939D2D" stroke-width="2.5" stroke-linecap="round" stroke-linejoin="round"/>
</svg>
