<svg width="33" height="32" viewBox="0 0 33 32" fill="none" xmlns="http://www.w3.org/2000/svg">
<path d="M3.16666 16.0003H29.8333M3.16666 16.0003C3.16666 23.3641 9.13619 29.3337 16.5 29.3337M3.16666 16.0003C3.16666 8.63653 9.13619 2.66699 16.5 2.66699M29.8333 16.0003C29.8333 23.3641 23.8638 29.3337 16.5 29.3337M29.8333 16.0003C29.8333 8.63653 23.8638 2.66699 16.5 2.66699M16.5 2.66699C19.835 6.31813 21.7303 11.0564 21.8333 16.0003C21.7303 20.9443 19.835 25.6825 16.5 29.3337M16.5 2.66699C13.1649 6.31813 11.2697 11.0564 11.1667 16.0003C11.2697 20.9443 13.1649 25.6825 16.5 29.3337" stroke="#939D2D" stroke-width="2" stroke-linecap="round" stroke-linejoin="round"/>
</svg>
