<svg width="16" height="17" viewBox="0 0 16 17" fill="none" xmlns="http://www.w3.org/2000/svg">
<g clip-path="url(#clip0_3066_1410)">
<path d="M8 0.5C6.41775 0.5 4.87104 0.969192 3.55544 1.84824C2.23985 2.72729 1.21447 3.97672 0.608967 5.43853C0.00346629 6.90034 -0.15496 8.50887 0.153721 10.0607C0.462403 11.6126 1.22433 13.038 2.34315 14.1569C3.46197 15.2757 4.88743 16.0376 6.43928 16.3463C7.99113 16.655 9.59966 16.4965 11.0615 15.891C12.5233 15.2855 13.7727 14.2602 14.6518 12.9446C15.5308 11.629 16 10.0823 16 8.5C15.9977 6.37897 15.1541 4.34547 13.6543 2.84568C12.1545 1.34589 10.121 0.502294 8 0.5V0.5ZM8 15.1667C6.68146 15.1667 5.39253 14.7757 4.2962 14.0431C3.19987 13.3106 2.34539 12.2694 1.84081 11.0512C1.33622 9.83305 1.2042 8.49261 1.46144 7.1994C1.71867 5.90619 2.35361 4.71831 3.28596 3.78596C4.21831 2.85361 5.4062 2.21867 6.6994 1.96143C7.99261 1.7042 9.33305 1.83622 10.5512 2.3408C11.7694 2.84539 12.8106 3.69987 13.5431 4.7962C14.2757 5.89253 14.6667 7.18146 14.6667 8.5C14.6647 10.2675 13.9617 11.9621 12.7119 13.2119C11.4621 14.4617 9.76752 15.1647 8 15.1667Z" fill="#1C133C" fill-opacity="0.6"/>
<path d="M7.99983 7.16699H7.33317C7.15636 7.16699 6.98679 7.23723 6.86177 7.36225C6.73674 7.48728 6.6665 7.65685 6.6665 7.83366C6.6665 8.01047 6.73674 8.18004 6.86177 8.30506C6.98679 8.43009 7.15636 8.50033 7.33317 8.50033H7.99983V12.5003C7.99983 12.6771 8.07007 12.8467 8.1951 12.9717C8.32012 13.0968 8.48969 13.167 8.6665 13.167C8.84331 13.167 9.01288 13.0968 9.1379 12.9717C9.26293 12.8467 9.33317 12.6771 9.33317 12.5003V8.50033C9.33317 8.1467 9.19269 7.80757 8.94264 7.55752C8.69259 7.30747 8.35346 7.16699 7.99983 7.16699Z" fill="#1C133C" fill-opacity="0.6"/>
<path d="M8 5.83301C8.55228 5.83301 9 5.38529 9 4.83301C9 4.28072 8.55228 3.83301 8 3.83301C7.44772 3.83301 7 4.28072 7 4.83301C7 5.38529 7.44772 5.83301 8 5.83301Z" fill="#1C133C" fill-opacity="0.6"/>
</g>
<defs>
<clipPath id="clip0_3066_1410">
<rect width="16" height="16" fill="white" transform="translate(0 0.5)"/>
</clipPath>
</defs>
</svg>
