<svg width="31" height="22" viewBox="0 0 31 22" fill="none" xmlns="http://www.w3.org/2000/svg">
<g clip-path="url(#clip0_1021_20137)">
<path d="M9.03418 8.16016C9.29171 8.21307 9.48528 8.44075 9.48535 8.71387V11.9834H17.8838C18.1961 11.9835 18.4492 12.2375 18.4492 12.5498V17.6992C18.449 18.0119 18.196 18.2655 17.8838 18.2656H9.48535V21.5352L9.47656 21.6348C9.46464 21.6994 9.44126 21.7615 9.4082 21.8184L9.35059 21.8994C9.14952 22.1372 8.79287 22.1676 8.55469 21.9668V21.9658L1.01074 15.5615L0.9375 15.4893C0.736294 15.2512 0.765968 14.8945 1.00391 14.6934L8.53125 8.30273C8.63624 8.20341 8.77524 8.14814 8.91992 8.14844L9.03418 8.16016ZM2.24121 15.124L8.35449 20.3135V17.6992C8.35449 17.3869 8.60756 17.1328 8.91992 17.1328H17.3174V13.1162H8.91992C8.60763 13.1162 8.35473 12.8625 8.35449 12.5498V9.93457L2.24121 15.124ZM22.0801 -0.0996094C22.2307 -0.0995525 22.3674 -0.0411771 22.4688 0.0546875L29.9951 6.44531L30.0752 6.52734C30.2373 6.73356 30.2372 7.03129 30.0615 7.23926L30.0625 7.24023C30.0396 7.26803 30.0144 7.2922 29.9883 7.31348L22.4453 13.7178C22.2071 13.9193 21.8495 13.8899 21.6484 13.6514V13.6504C21.5623 13.5486 21.5153 13.4195 21.5156 13.2861L21.5137 10.0166H13.1162C12.8039 10.0166 12.5508 9.76353 12.5508 9.45117V4.30176C12.5508 3.98891 12.8038 3.73535 13.1162 3.73535H21.5137V0.46582C21.5137 0.153458 21.7677 -0.0996094 22.0801 -0.0996094ZM22.6465 4.30176C22.6465 4.6141 22.3928 4.86707 22.0801 4.86719H13.6826V8.88477H22.0801C22.3929 8.88488 22.6465 9.13833 22.6465 9.45117V12.0645L28.7559 6.87598L22.6465 1.6875V4.30176Z" fill="#767E24" stroke="#767E24" stroke-width="0.2"/>
</g>
<defs>
<clipPath id="clip0_1021_20137">
<rect width="29.1912" height="22" fill="white" transform="translate(0.904297)"/>
</clipPath>
</defs>
</svg>
