<svg width="25" height="30" viewBox="0 0 25 30" fill="none" xmlns="http://www.w3.org/2000/svg">
<path d="M1.83334 8.06699C1.83334 5.82678 1.83334 4.70668 2.26932 3.85103C2.65281 3.09838 3.26473 2.48646 4.01738 2.10297C4.87303 1.66699 5.99313 1.66699 8.23334 1.66699H12.5157C13.4941 1.66699 13.9833 1.66699 14.4436 1.77751C14.8517 1.8755 15.2419 2.03712 15.5998 2.25643C16.0035 2.5038 16.3494 2.8497 17.0412 3.54151L21.2922 7.79247C21.984 8.48428 22.3299 8.83019 22.5772 9.23385C22.7966 9.59174 22.9582 9.98192 23.0562 10.3901C23.1667 10.8504 23.1667 11.3396 23.1667 12.318V21.9337C23.1667 24.1739 23.1667 25.294 22.7307 26.1496C22.3472 26.9023 21.7353 27.5142 20.9826 27.8977C20.127 28.3337 19.0069 28.3337 16.7667 28.3337H8.23334C5.99313 28.3337 4.87303 28.3337 4.01738 27.8977C3.26473 27.5142 2.65281 26.9023 2.26932 26.1496C1.83334 25.294 1.83334 24.1739 1.83334 21.9337V8.06699Z" stroke="#939D2D" stroke-width="2" stroke-linecap="round" stroke-linejoin="round"/>
<path d="M7.16668 17.4003C7.16668 17.027 7.16668 16.8403 7.23934 16.6977C7.30325 16.5722 7.40524 16.4702 7.53068 16.4063C7.67329 16.3337 7.85998 16.3337 8.23334 16.3337H16.7667C17.14 16.3337 17.3267 16.3337 17.4693 16.4063C17.5948 16.4702 17.6968 16.5722 17.7607 16.6977C17.8333 16.8403 17.8333 17.027 17.8333 17.4003V21.9337C17.8333 22.307 17.8333 22.4937 17.7607 22.6363C17.6968 22.7618 17.5948 22.8637 17.4693 22.9277C17.3267 23.0003 17.14 23.0003 16.7667 23.0003H8.23334C7.85997 23.0003 7.67329 23.0003 7.53068 22.9277C7.40524 22.8637 7.30325 22.7618 7.23934 22.6363C7.16668 22.4937 7.16668 22.307 7.16668 21.9337V17.4003Z" stroke="#939D2D" stroke-width="2" stroke-linecap="round" stroke-linejoin="round"/>
</svg>
