<svg width="157" height="42" viewBox="0 0 157 42" fill="none" xmlns="http://www.w3.org/2000/svg">
<path d="M150.217 41.2373L139.453 24.958L128.689 41.2373H122.307L136.262 20.1304L122.951 0H129.333L139.453 15.3068L149.573 0H155.955L142.644 20.1304L156.599 41.2373H150.217Z" fill="white"/>
<path d="M3.05176e-05 41.2139V0.0234375H17.1777C23.591 0.0234375 28.8091 5.24157 28.8091 11.6549C28.8091 13.514 28.356 15.3654 27.5007 17.0136L26.5398 18.8571L28.2467 20.0484C31.3674 22.2239 33.2305 25.7899 33.2305 29.5863C33.2305 35.9996 28.0162 41.2178 21.6068 41.2178H0.00393416L3.05176e-05 41.2139ZM5.32361 35.8903H21.6029C22.4193 35.8903 23.2238 35.7341 23.9894 35.4216L24.0597 35.3942L24.0948 35.3786C26.4852 34.3358 28.0162 31.9962 28.0162 29.4145C28.0162 25.8368 25.1064 22.927 21.5287 22.927H12.6548V18.3221H17.1074C20.689 18.3221 23.5988 15.4083 23.5988 11.8306C23.5988 9.84259 22.7044 7.99515 21.146 6.76092C20.8687 6.53829 20.5562 6.32738 20.2242 6.1399C19.4626 5.71026 18.6267 5.44858 17.744 5.37046C17.5292 5.35093 17.3144 5.34312 17.1074 5.34312H5.31971V35.8864L5.32361 35.8903Z" fill="white"/>
<path d="M68.4088 41.2139L55.8166 4.23778C55.4455 4.23778 55.4494 4.23778 55.0784 4.23778L42.4861 41.2139H36.8579L50.8914 0.0234375H59.9997L74.0371 41.2178H68.4088V41.2139Z" fill="white"/>
<path d="M103.967 41.2297L90.0821 11.1083L87.6448 5.0309H86.0864V41.1946H80.7589V0.0393029H91.0351L104.94 30.2037L107.361 36.2303H108.92V0.00805664H114.247V41.2297H103.967Z" fill="white"/>
</svg>
