<svg width="118" height="80" viewBox="0 0 118 80" fill="none" xmlns="http://www.w3.org/2000/svg">
<path d="M36.3807 39.9812L2.92546 80H0L33.4927 39.9812L0 0H2.92546L36.3807 39.9812Z" fill="white"/>
<path d="M42.4942 39.9812L17.4027 80H14.1022L39.1937 39.9812L14.1022 0H17.4027L42.4942 39.9812Z" fill="white"/>
<path d="M48.57 39.9812L31.8424 80H28.2044L44.932 39.9812L28.2044 0H31.8424L48.57 39.9812Z" fill="white"/>
<path d="M54.646 39.9812L46.2822 80H42.3066L50.6704 39.9812L42.3066 0H46.2822L54.646 39.9812Z" fill="white"/>
<path d="M60.7969 0H56.3338V80H60.7969V0Z" fill="white"/>
<path d="M83.6756 39.9812L117.131 80H114.205L80.7501 39.9812L114.205 0H117.131L83.6756 39.9812Z" fill="white"/>
<path d="M77.9371 39.9812L103.066 80H99.7656L74.6366 39.9812L99.7656 0H103.066L77.9371 39.9812Z" fill="white"/>
<path d="M72.1988 39.9812L88.9264 80H85.3258L68.5607 39.9812L85.3258 0H88.9264L72.1988 39.9812Z" fill="white"/>
<path d="M66.4604 39.9812L74.8617 80H70.8486L62.4848 39.9812L70.8486 0H74.8617L66.4604 39.9812Z" fill="white"/>
<path d="M60.7969 0H56.3338V80H60.7969V0Z" fill="white"/>
</svg>
