<svg width="84" height="85" viewBox="0 0 84 85" fill="none" xmlns="http://www.w3.org/2000/svg">
<rect x="1" y="1.6377" width="82" height="82" rx="13" fill="#939D2D" stroke="#F8F8F4" stroke-width="2"/>
<path d="M32.146 42.6295L17.2859 60.405H15.9865L30.8633 42.6295L15.9865 24.8706H17.2859L32.146 42.6295Z" fill="white"/>
<path d="M34.8616 42.6295L23.7165 60.405H22.2504L33.3955 42.6295L22.2504 24.8706H23.7165L34.8616 42.6295Z" fill="white"/>
<path d="M37.5603 42.6295L30.1302 60.405H28.5143L35.9444 42.6295L28.5143 24.8706H30.1302L37.5603 42.6295Z" fill="white"/>
<path d="M40.2595 42.6295L36.5445 60.405H34.7786L38.4936 42.6295L34.7786 24.8706H36.5445L40.2595 42.6295Z" fill="white"/>
<path d="M42.9913 24.8706H41.0088V60.405H42.9913V24.8706Z" fill="white"/>
<path d="M53.1534 42.6295L68.0135 60.405H66.7141L51.8539 42.6295L66.7141 24.8706H68.0135L53.1534 42.6295Z" fill="white"/>
<path d="M50.6049 42.6295L61.7667 60.405H60.3006L49.1389 42.6295L60.3006 24.8706H61.7667L50.6049 42.6295Z" fill="white"/>
<path d="M48.0558 42.6295L55.4859 60.405H53.8866L46.4399 42.6295L53.8866 24.8706H55.4859L48.0558 42.6295Z" fill="white"/>
<path d="M45.5072 42.6295L49.2389 60.405H47.4564L43.7413 42.6295L47.4564 24.8706H49.2389L45.5072 42.6295Z" fill="white"/>
<path d="M42.9913 24.8706H41.0088V60.405H42.9913V24.8706Z" fill="white"/>
</svg>
