<svg width="393" height="449" viewBox="0 0 393 449" fill="none" xmlns="http://www.w3.org/2000/svg">
<g opacity="0.2">
<mask id="mask0_1_50" style="mask-type:alpha" maskUnits="userSpaceOnUse" x="0" y="0" width="393" height="449">
<rect width="393" height="448.312" fill="#D9D9D9"/>
</mask>
<g mask="url(#mask0_1_50)">
<path fill-rule="evenodd" clip-rule="evenodd" d="M-293.254 450.588L856.756 267.417L857.01 268.985L-293 452.156L-293.254 450.588Z" fill="#939D2D"/>
<path fill-rule="evenodd" clip-rule="evenodd" d="M330.186 338.044L849.639 220.506L850.063 222.355L330.508 339.916L-316.95 413.528L-317.168 411.644L330.186 338.044Z" fill="#939D2D"/>
<path fill-rule="evenodd" clip-rule="evenodd" d="M324.2 325.753L842.507 173.6L843.137 175.714L324.598 327.935L-340.906 374.898L-341.063 372.699L324.2 325.753Z" fill="#939D2D"/>
<path fill-rule="evenodd" clip-rule="evenodd" d="M318.206 313.457L835.357 126.708L836.223 129.068L318.688 315.956L-364.878 336.268L-364.954 333.757L318.206 313.457Z" fill="#939D2D"/>
<path fill-rule="evenodd" clip-rule="evenodd" d="M312.207 301.156L828.197 79.8203L829.325 82.4087L312.782 303.981L-388.859 297.633L-388.833 294.814L312.207 301.156Z" fill="#939D2D"/>
<path fill-rule="evenodd" clip-rule="evenodd" d="M306.209 288.852L821.024 32.9464L822.435 35.7429L306.885 292.014L-412.846 259.002L-412.701 255.878L306.209 288.852Z" fill="#939D2D"/>
<path fill-rule="evenodd" clip-rule="evenodd" d="M300.202 276.539L813.843 -13.9216L815.558 -10.9366L300.987 280.049L-436.844 220.362L-436.562 216.938L300.202 276.539Z" fill="#939D2D"/>
<path fill-rule="evenodd" clip-rule="evenodd" d="M294.192 264.22L806.653 -60.7759L808.684 -57.6215L295.093 268.092L-460.844 181.723L-460.412 178.004L294.192 264.22Z" fill="#939D2D"/>
<path fill-rule="evenodd" clip-rule="evenodd" d="M288.183 251.901L799.462 -107.616L801.82 -104.314L289.206 256.141L-484.857 143.079L-484.263 139.076L288.183 251.901Z" fill="#939D2D"/>
<path fill-rule="evenodd" clip-rule="evenodd" d="M282.165 239.569L792.264 -154.457L794.959 -151.021L283.319 244.196L-508.874 104.431L-508.106 100.144L282.165 239.569Z" fill="#939D2D"/>
<path fill-rule="evenodd" clip-rule="evenodd" d="M276.148 227.234L785.06 -201.286L788.1 -197.731L277.44 232.26L-532.894 65.7874L-531.941 61.2219L276.148 227.234Z" fill="#939D2D"/>
<path fill-rule="evenodd" clip-rule="evenodd" d="M270.124 214.889L777.856 -248.112L781.245 -244.452L271.56 220.329L-556.92 27.1341L-555.774 22.2957L270.124 214.889Z" fill="#939D2D"/>
<path fill-rule="evenodd" clip-rule="evenodd" d="M264.097 202.537L770.648 -294.927L774.389 -291.176L265.683 208.405L-580.946 -11.5189L-579.599 -16.625L264.097 202.537Z" fill="#939D2D"/>
<path fill-rule="evenodd" clip-rule="evenodd" d="M258.071 190.181L763.442 -341.741L767.538 -337.909L259.813 196.49L-604.982 -50.174L-603.427 -55.5425L258.071 190.181Z" fill="#939D2D"/>
<path fill-rule="evenodd" clip-rule="evenodd" d="M252.041 177.812L756.233 -388.546L760.684 -384.644L253.945 184.575L-629.018 -88.8346L-627.249 -94.4608L252.041 177.812Z" fill="#939D2D"/>
<path fill-rule="evenodd" clip-rule="evenodd" d="M857.01 268.984L-293 452.155L-293.253 450.587L856.756 267.416L857.01 268.984Z" fill="#939D2D"/>
<path fill-rule="evenodd" clip-rule="evenodd" d="M283.968 372.702L866.462 293.727L866.197 291.8L283.657 370.781L-294.53 476.678L-294.174 478.591L283.968 372.702Z" fill="#939D2D"/>
<path fill-rule="evenodd" clip-rule="evenodd" d="M285.93 384.837L875.904 318.476L875.642 316.184L285.561 382.557L-295.816 502.767L-295.342 505.026L285.93 384.837Z" fill="#939D2D"/>
<path fill-rule="evenodd" clip-rule="evenodd" d="M287.893 396.971L885.341 343.219L885.099 340.566L287.466 394.335L-297.103 528.865L-296.497 531.46L287.893 396.971Z" fill="#939D2D"/>
<path fill-rule="evenodd" clip-rule="evenodd" d="M289.852 409.106L894.77 367.965L894.562 364.947L289.367 406.107L-298.403 554.96L-297.65 557.891L289.852 409.106Z" fill="#939D2D"/>
<path fill-rule="evenodd" clip-rule="evenodd" d="M291.814 421.242L904.185 392.709L904.026 389.331L291.271 417.882L-299.709 581.059L-298.796 584.317L291.814 421.242Z" fill="#939D2D"/>
<path fill-rule="evenodd" clip-rule="evenodd" d="M293.779 433.382L913.601 417.454L913.504 413.711L293.175 429.653L-301.018 607.161L-299.931 610.746L293.779 433.382Z" fill="#939D2D"/>
<path fill-rule="evenodd" clip-rule="evenodd" d="M295.741 445.522L923.006 442.2L922.984 438.099L295.079 441.425L-302.337 633.266L-301.065 637.167L295.741 445.522Z" fill="#939D2D"/>
<path fill-rule="evenodd" clip-rule="evenodd" d="M297.708 457.659L932.409 466.941L932.475 462.484L296.985 453.191L-303.658 659.369L-302.19 663.581L297.708 457.659Z" fill="#939D2D"/>
<path fill-rule="evenodd" clip-rule="evenodd" d="M299.673 469.805L941.805 491.683L941.972 486.868L298.888 464.957L-304.984 685.48L-303.307 690.002L299.673 469.805Z" fill="#939D2D"/>
<path fill-rule="evenodd" clip-rule="evenodd" d="M301.637 481.951L951.193 516.427L951.471 511.259L300.791 476.723L-306.319 711.593L-304.425 716.415L301.637 481.951Z" fill="#939D2D"/>
<path fill-rule="evenodd" clip-rule="evenodd" d="M303.602 494.101L960.577 541.167L960.979 535.644L302.693 488.484L-307.66 737.706L-305.537 742.827L303.602 494.101Z" fill="#939D2D"/>
<path fill-rule="evenodd" clip-rule="evenodd" d="M305.568 506.25L969.954 565.9L970.489 560.03L304.596 500.245L-308.999 763.828L-306.64 769.236L305.568 506.25Z" fill="#939D2D"/>
</g>
</g>
</svg>
