<svg width="391" height="339" viewBox="0 0 391 339" fill="none" xmlns="http://www.w3.org/2000/svg">
<mask id="mask0_248_4949" style="mask-type:alpha" maskUnits="userSpaceOnUse" x="0" y="0" width="391" height="339">
<rect x="0.5" width="390" height="338.429" fill="#0D446B"/>
</mask>
<g mask="url(#mask0_248_4949)">
<g opacity="0.5">
<g clip-path="url(#clip0_248_4949)">
<path d="M-331.945 321.794L-332.356 321.005L181.923 57.9485L234.47 -517.311L235.37 -517.233L182.767 58.5151L182.556 58.6262L-331.945 321.794Z" fill="#2283AD"/>
<path d="M-302.866 341.584L-303.533 340.372L192.835 65.3155L263.193 -497.777L264.56 -497.61L194.112 66.1822L193.801 66.36L-302.866 341.584Z" fill="#2283AD"/>
<path d="M-273.764 361.351L-274.72 359.762L203.746 72.7046L291.917 -478.265L293.75 -477.965L205.446 73.8491L205.068 74.0714L-273.764 361.351Z" fill="#2283AD"/>
<path d="M-244.652 381.119L-245.919 379.152L214.669 80.0828L320.64 -458.764L322.94 -458.308L216.769 81.5051L216.358 81.7719L-244.652 381.119Z" fill="#2283AD"/>
<path d="M-215.517 400.864L-217.14 398.553L225.592 87.472L349.364 -439.274L352.12 -438.63L228.092 89.1609L227.647 89.4721L-215.517 400.864Z" fill="#2283AD"/>
<path d="M-186.372 420.609L-188.372 417.976L236.514 94.8613L378.11 -419.818L381.288 -418.94L239.414 96.817L238.97 97.1503L-186.372 420.609Z" fill="#2283AD"/>
<path d="M-157.215 440.333L-159.626 437.41L247.448 102.251L406.844 -400.372L410.456 -399.228L250.726 104.462L250.293 104.817L-157.215 440.333Z" fill="#2283AD"/>
<path d="M-128.036 460.045L-130.88 456.855L258.382 109.64L435.601 -380.949L439.624 -379.494L262.038 112.118L261.627 112.473L-128.036 460.045Z" fill="#2283AD"/>
<path d="M-98.8565 479.734L-102.157 476.323L269.327 117.04L464.369 -361.537L468.769 -359.748L273.349 119.762L272.983 120.107L-98.8565 479.734Z" fill="#2283AD"/>
<path d="M-69.6552 499.413L-73.4443 495.802L280.261 124.429L493.137 -342.147L497.904 -339.981L284.65 127.407L284.35 127.729L-69.6552 499.413Z" fill="#2283AD"/>
<path d="M-40.4428 519.069L-44.743 515.303L291.194 131.83L521.927 -322.78L527.027 -320.191L295.961 135.052L295.728 135.33L-40.4428 519.069Z" fill="#2283AD"/>
<path d="M-11.2192 538.704L-16.0528 534.826L302.128 139.219L550.729 -303.424L556.14 -300.39L307.284 142.708L307.117 142.908L-11.2192 538.704Z" fill="#2283AD"/>
<path d="M18.0043 558.327L12.6263 554.36L313.051 146.608L579.552 -284.078L585.23 -280.567L318.596 150.353L18.0043 558.327Z" fill="#2283AD"/>
<path d="M208.369 686.81L207.569 686.41L436.501 230.078L436.546 230.034L774.705 -152.361L775.383 -151.772L437.257 230.59L208.369 686.81Z" fill="#2283AD"/>
<path d="M195.901 678.343L194.679 677.721L427.89 224.256L427.945 224.2L761.838 -161.095L762.883 -160.184L429.045 225.034L195.901 678.343Z" fill="#2283AD"/>
<path d="M183.434 669.888L181.79 669.021L419.278 218.434L419.345 218.356L748.971 -169.817L750.393 -168.606L420.823 219.478L183.434 669.888Z" fill="#2283AD"/>
<path d="M170.956 661.443L168.9 660.32L410.667 212.611L410.744 212.522L736.093 -178.54L737.893 -177.04L412.611 213.933L170.956 661.443Z" fill="#2283AD"/>
<path d="M158.477 652.986L156.011 651.62L402.055 206.788L402.133 206.688L723.225 -187.252L725.414 -185.474L404.4 208.377L158.477 652.986Z" fill="#2283AD"/>
<path d="M145.999 644.542L143.121 642.92L393.444 200.966L393.521 200.855L710.347 -195.963L712.925 -193.908L396.188 202.822L145.999 644.542Z" fill="#2283AD"/>
<path d="M133.521 636.108L130.243 634.208L384.832 195.144L384.91 195.033L697.457 -204.675L700.446 -202.341L387.977 197.266L133.521 636.108Z" fill="#2283AD"/>
<path d="M121.031 627.674L117.364 625.496L376.221 189.321L376.287 189.221L684.579 -213.386L687.968 -210.786L379.754 191.71L121.031 627.674Z" fill="#2283AD"/>
<path d="M108.553 619.241L104.486 616.774L367.598 183.499L367.676 183.399L671.69 -222.086L675.49 -219.231L371.543 186.154L108.553 619.241Z" fill="#2283AD"/>
<path d="M96.0634 610.818L91.6188 608.051L358.986 177.676L359.053 177.587L658.8 -230.787L663.023 -227.687L363.331 180.61L96.0634 610.818Z" fill="#2283AD"/>
<path d="M83.5629 602.395L78.7404 599.328L350.375 171.842L350.431 171.776L645.911 -239.476L650.544 -236.143L355.12 175.054L83.5629 602.395Z" fill="#2283AD"/>
<path d="M71.0734 593.973L65.8732 590.595L341.763 166.02L341.797 165.975L633.01 -248.166L638.077 -244.599L346.897 169.498L71.0734 593.973Z" fill="#2283AD"/>
<path d="M58.5729 585.561L53.0059 581.861L333.141 160.22L620.109 -256.855L625.621 -253.066L338.674 163.964L58.5729 585.561Z" fill="#2283AD"/>
<path d="M46.0723 577.15L40.1498 573.127L324.54 154.375L607.209 -265.533L613.154 -261.533L330.474 158.386L46.0723 577.15Z" fill="#2283AD"/>
</g>
</g>
</g>
<defs>
<clipPath id="clip0_248_4949">
<rect width="1107.74" height="1204.12" fill="white" transform="translate(-332.356 -517.311)"/>
</clipPath>
</defs>
</svg>
