<svg width="361" height="128" viewBox="0 0 361 128" fill="none" xmlns="http://www.w3.org/2000/svg">
<rect width="361" height="128" rx="10" fill="#0D446B"/>
<mask id="mask0_679_23227" style="mask-type:alpha" maskUnits="userSpaceOnUse" x="0" y="0" width="361" height="128">
<rect width="361" height="128" rx="10" fill="#0D446B"/>
</mask>
<g mask="url(#mask0_679_23227)">
<path d="M460.666 246.745L460.942 246.231L115.79 75.0638L80.5242 -299.25L79.9201 -299.199L115.224 75.4326L115.365 75.5049L460.666 246.745Z" fill="#2283AD"/>
<path d="M441.15 259.622L441.597 258.834L108.467 79.8577L61.2465 -286.539L60.3292 -286.431L107.609 80.4216L107.818 80.5374L441.15 259.622Z" fill="#2283AD"/>
<path d="M421.618 272.484L422.259 271.45L101.143 84.6658L41.9683 -273.843L40.7379 -273.648L100.002 85.4106L100.256 85.5551L421.618 272.484Z" fill="#2283AD"/>
<path d="M402.08 285.346L402.93 284.067L93.8127 89.4662L22.6913 -261.154L21.1476 -260.858L92.4032 90.3916L92.6791 90.5652L402.08 285.346Z" fill="#2283AD"/>
<path d="M382.526 298.194L383.615 296.69L86.4816 94.2742L3.41342 -248.473L1.564 -248.053L84.8037 95.3731L85.102 95.5756L382.526 298.194Z" fill="#2283AD"/>
<path d="M362.966 311.042L364.308 309.329L79.1516 99.0823L-15.8783 -235.812L-18.0111 -235.241L77.2052 100.355L77.5035 100.572L362.966 311.042Z" fill="#2283AD"/>
<path d="M343.399 323.877L345.017 321.975L71.8147 103.891L-35.162 -223.159L-37.5857 -222.414L69.6147 105.33L69.9056 105.561L343.399 323.877Z" fill="#2283AD"/>
<path d="M323.814 336.702L325.723 334.627L64.4749 108.698L-54.4634 -210.521L-57.163 -209.574L62.0214 110.311L62.2973 110.542L323.814 336.702Z" fill="#2283AD"/>
<path d="M304.231 349.515L306.446 347.295L57.1298 113.514L-73.7703 -197.89L-76.7234 -196.726L54.4302 115.286L54.6763 115.51L304.231 349.515Z" fill="#2283AD"/>
<path d="M284.635 362.319L287.178 359.969L49.793 118.322L-93.0761 -185.273L-96.2754 -183.864L46.8474 120.26L47.0487 120.469L284.635 362.319Z" fill="#2283AD"/>
<path d="M265.027 375.109L267.913 372.658L42.4532 123.138L-112.4 -172.671L-115.823 -170.986L39.2539 125.234L39.4105 125.415L265.027 375.109Z" fill="#2283AD"/>
<path d="M245.415 387.885L248.659 385.362L35.1157 127.945L-131.729 -160.076L-135.361 -158.102L31.6554 130.216L31.7673 130.346L245.415 387.885Z" fill="#2283AD"/>
<path d="M225.802 400.654L229.411 398.072L27.7852 132.754L-151.073 -147.488L-154.884 -145.204L24.064 135.19L225.802 400.654Z" fill="#2283AD"/>
<path d="M98.0398 484.257L98.5767 483.996L-55.0685 187.067L-55.0983 187.038L-282.05 -61.7812L-282.505 -61.3981L-55.5756 187.4L98.0398 484.257Z" fill="#2283AD"/>
<path d="M106.409 478.747L107.229 478.342L-49.2873 183.278L-49.3246 183.242L-273.412 -67.4648L-274.113 -66.872L-50.0628 183.784L106.409 478.747Z" fill="#2283AD"/>
<path d="M114.776 473.245L115.88 472.681L-43.5075 179.49L-43.5522 179.44L-264.777 -73.1396L-265.731 -72.3516L-44.5441 180.17L114.776 473.245Z" fill="#2283AD"/>
<path d="M123.151 467.75L124.531 467.02L-37.7277 175.702L-37.7799 175.644L-256.133 -78.8154L-257.341 -77.8394L-39.0328 176.562L123.151 467.75Z" fill="#2283AD"/>
<path d="M131.526 462.248L133.182 461.358L-31.948 171.912L-32.0002 171.847L-247.497 -84.4844L-248.966 -83.3275L-33.5215 172.946L131.526 462.248Z" fill="#2283AD"/>
<path d="M139.9 456.753L141.831 455.698L-26.1696 168.124L-26.2219 168.052L-238.855 -90.1523L-240.585 -88.8148L-28.0116 169.332L139.9 456.753Z" fill="#2283AD"/>
<path d="M148.274 451.265L150.474 450.029L-20.3908 164.335L-20.443 164.263L-230.205 -95.8213L-232.211 -94.3029L-22.5013 165.716L148.274 451.265Z" fill="#2283AD"/>
<path d="M156.655 445.778L159.116 444.361L-14.6122 160.547L-14.6569 160.482L-221.563 -101.489L-223.837 -99.7974L-16.9836 162.102L156.655 445.778Z" fill="#2283AD"/>
<path d="M165.032 440.289L167.761 438.684L-8.82306 156.758L-8.87526 156.692L-212.91 -107.151L-215.461 -105.293L-11.4704 158.486L165.032 440.289Z" fill="#2283AD"/>
<path d="M173.412 434.809L176.395 433.009L-3.04535 152.969L-3.09009 152.911L-204.261 -112.812L-207.095 -110.795L-5.96123 154.878L173.412 434.809Z" fill="#2283AD"/>
<path d="M181.802 429.329L185.039 427.333L2.7348 149.174L2.69753 149.131L-195.61 -118.466L-198.72 -116.297L-0.449524 151.263L181.802 429.329Z" fill="#2283AD"/>
<path d="M190.184 423.848L193.674 421.65L8.51393 145.385L8.49155 145.356L-186.952 -124.12L-190.353 -121.799L5.06862 147.648L190.184 423.848Z" fill="#2283AD"/>
<path d="M198.575 418.375L202.311 415.967L14.302 141.611L-178.293 -129.774L-181.992 -127.309L10.5882 144.047L198.575 418.375Z" fill="#2283AD"/>
<path d="M206.964 412.902L210.939 410.284L20.0741 137.808L-169.635 -135.421L-173.625 -132.818L16.0918 140.418L206.964 412.902Z" fill="#2283AD"/>
</g>
<path d="M188.577 35.728C188.3 35.5787 188.001 35.3813 187.681 35.136C187.361 34.8907 187.1 34.6613 186.897 34.448L188.017 33.008C188.22 33.2213 188.481 33.4507 188.801 33.696C189.121 33.9413 189.42 34.1387 189.697 34.288L188.577 35.728ZM193.425 31.056C193.809 32.7947 194.001 34.288 194.001 35.536C194.001 36.4107 193.841 37.2373 193.521 38.016C193.212 38.7947 192.828 39.3653 192.369 39.728C191.825 40.1547 191.052 40.5173 190.049 40.816C189.057 41.1253 188.065 41.28 187.073 41.28C185.655 41.28 184.588 40.9707 183.873 40.352C183.159 39.7333 182.801 38.8533 182.801 37.712C182.801 36.528 183.132 34.928 183.793 32.912L184.721 33.184C184.348 34.592 184.161 35.6907 184.161 36.48C184.161 37.2053 184.444 37.7707 185.009 38.176C185.575 38.5813 186.412 38.784 187.521 38.784C188.172 38.784 188.855 38.7147 189.569 38.576C190.295 38.4373 190.94 38.256 191.505 38.032C192.071 37.808 192.46 37.5787 192.673 37.344C192.748 37.2373 192.785 37.072 192.785 36.848C192.785 36.4107 192.679 35.7387 192.465 34.832C192.263 33.9147 192.012 32.9973 191.713 32.08L193.425 31.056ZM199.556 38C198.543 38 197.78 37.7173 197.268 37.152C196.756 36.576 196.473 35.6693 196.42 34.432L196.324 32.432C196.132 28.6133 196.02 26.5067 195.988 26.112L197.956 25.44V26.16L197.924 30.416L197.908 33.168C197.908 33.9787 198.068 34.5707 198.388 34.944C198.708 35.3173 199.225 35.504 199.94 35.504L199.556 38ZM210.878 31.424C210.974 31.9147 211.054 32.432 211.118 32.976C211.182 33.52 211.214 33.984 211.214 34.368C211.214 34.9973 211.107 35.5947 210.894 36.16C210.691 36.7147 210.425 37.1627 210.094 37.504C209.763 37.8347 209.433 38 209.102 38C208.483 38 207.961 37.8667 207.534 37.6C207.107 37.3333 206.83 36.9813 206.702 36.544C206.489 37.0347 206.195 37.4027 205.822 37.648C205.459 37.8827 205.038 38 204.558 38C204.025 38 203.582 37.8667 203.23 37.6C202.889 37.3333 202.67 36.9493 202.574 36.448C202.318 37.0027 201.95 37.4027 201.47 37.648C200.99 37.8827 200.35 38 199.55 38C199.497 38 199.454 37.9253 199.422 37.776C199.379 37.6267 199.358 37.424 199.358 37.168C199.358 36.6667 199.417 36.2667 199.534 35.968C199.651 35.6587 199.785 35.504 199.934 35.504C200.766 35.504 201.385 35.3813 201.79 35.136C202.195 34.88 202.425 34.4747 202.478 33.92L202.558 33.008L203.55 32.928V33.92C203.55 34.4213 203.662 34.8107 203.886 35.088C204.121 35.3653 204.467 35.504 204.926 35.504C205.406 35.504 205.774 35.3813 206.03 35.136C206.297 34.88 206.457 34.528 206.51 34.08L206.574 33.232L207.566 33.152V33.936C207.566 34.4373 207.737 34.8267 208.078 35.104C208.43 35.3707 208.915 35.504 209.534 35.504C209.801 35.504 209.955 35.424 209.998 35.264C209.987 35.0187 209.907 34.6133 209.758 34.048C209.619 33.4827 209.454 32.9013 209.262 32.304L210.878 31.424ZM213.971 38.144L213.379 27.968L215.331 27.344L215.171 37.904L213.971 38.144ZM217.235 25.376C216.851 25.6 216.392 25.7707 215.859 25.888C215.336 26.0053 214.84 26.064 214.371 26.064C213.517 26.064 212.797 25.9093 212.211 25.6L211.699 26.896L210.947 26.304L211.667 24.832C211.805 24.5333 211.944 24.32 212.083 24.192C212.211 24.064 212.365 24 212.547 24C212.664 24 212.835 24.0373 213.059 24.112C213.325 24.1973 213.587 24.2667 213.843 24.32C214.099 24.3627 214.424 24.384 214.819 24.384C215.213 24.384 215.64 24.3467 216.099 24.272C216.557 24.1973 216.957 24.0907 217.299 23.952L217.235 25.376ZM223.362 31.36C223.97 31.36 224.503 31.584 224.962 32.032C225.431 32.48 225.794 33.088 226.05 33.856C226.306 34.624 226.434 35.472 226.434 36.4C226.434 38.48 225.767 39.9573 224.434 40.832C223.836 41.248 223.026 41.5947 222.002 41.872C220.978 42.1493 219.884 42.3253 218.722 42.4C218.551 42.2507 218.386 42.0267 218.226 41.728C218.066 41.44 217.82 40.9547 217.49 40.272C222.354 39.952 224.983 39.1573 225.378 37.888L225.362 37.376C224.53 37.7813 223.612 37.984 222.61 37.984C221.927 37.984 221.404 37.808 221.042 37.456C220.679 37.0933 220.498 36.592 220.498 35.952C220.498 35.2373 220.62 34.5227 220.866 33.808C221.111 33.0933 221.452 32.5067 221.89 32.048C222.327 31.5893 222.818 31.36 223.362 31.36ZM221.506 34.848C221.506 35.0933 221.623 35.2853 221.858 35.424C222.092 35.552 222.444 35.616 222.914 35.616C223.671 35.616 224.37 35.5253 225.01 35.344C224.818 34.736 224.546 34.2667 224.194 33.936C223.852 33.6053 223.447 33.44 222.978 33.44C222.583 33.44 222.236 33.5893 221.938 33.888C221.65 34.176 221.506 34.496 221.506 34.848ZM239.85 38C238.602 38 237.605 37.8933 236.858 37.68C236.122 37.4667 235.525 37.104 235.066 36.592C234.287 37.0507 233.647 37.5787 233.146 38.176C232.645 38.784 232.367 39.3493 232.314 39.872C232.453 41.6853 234.047 42.592 237.098 42.592C238.186 42.592 239.274 42.5493 240.362 42.464L239.834 44.464C239.311 44.6133 238.709 44.7307 238.026 44.816C237.354 44.912 236.741 44.96 236.186 44.96C234.447 44.96 233.173 44.6027 232.362 43.888C231.551 43.1733 231.146 42.1707 231.146 40.88C231.146 39.888 231.37 38.944 231.818 38.048C232.277 37.152 232.959 36.3307 233.866 35.584C233.29 34.88 232.719 34.0693 232.154 33.152C231.919 33.2053 231.679 33.28 231.434 33.376L231.466 31.696C231.882 31.44 232.522 31.216 233.386 31.024C234.25 30.832 235.071 30.736 235.85 30.736C236.949 30.736 237.791 30.864 238.378 31.12C238.975 31.3653 239.274 31.7173 239.274 32.176C239.274 32.3573 239.226 32.6293 239.13 32.992C239.045 33.344 238.959 33.6267 238.874 33.84C238.629 34.1707 238.111 34.688 237.322 35.392C238.101 35.4667 239.071 35.504 240.234 35.504L239.85 38ZM233.69 32.848C234.383 33.776 235.018 34.464 235.594 34.912C235.989 34.6773 236.437 34.3787 236.938 34.016C237.439 33.6427 237.802 33.3547 238.026 33.152V33.008C237.834 32.9013 237.514 32.8213 237.066 32.768C236.629 32.704 236.106 32.672 235.498 32.672C234.997 32.672 234.394 32.7307 233.69 32.848ZM239.847 38C239.793 38 239.751 37.9253 239.719 37.776C239.676 37.6267 239.655 37.424 239.655 37.168C239.655 36.6667 239.713 36.2667 239.831 35.968C239.948 35.6587 240.081 35.504 240.231 35.504H240.967L240.583 38H239.847ZM247.349 31.152C247.477 31.6853 247.589 32.2453 247.685 32.832C247.792 33.4187 247.845 33.8667 247.845 34.176C247.845 34.5813 247.76 35.024 247.589 35.504C247.429 35.9733 247.216 36.4 246.949 36.784C246.682 37.168 246.4 37.4347 246.101 37.584C245.781 37.744 245.328 37.856 244.741 37.92C244.154 37.9733 243.328 38 242.261 38H240.581C240.528 38 240.485 37.9253 240.453 37.776C240.41 37.6267 240.389 37.424 240.389 37.168C240.389 36.6667 240.448 36.2667 240.565 35.968C240.682 35.6587 240.816 35.504 240.965 35.504H242.645C244 35.504 244.976 35.4667 245.573 35.392C246.17 35.3173 246.512 35.2107 246.597 35.072C246.565 34.816 246.458 34.3947 246.277 33.808C246.096 33.2213 245.898 32.6507 245.685 32.096L247.349 31.152ZM241.941 39.408C242.101 39.6 242.325 39.808 242.613 40.032C242.901 40.2667 243.184 40.4693 243.461 40.64L242.421 42C242.133 41.8293 241.84 41.6267 241.541 41.392C241.242 41.168 241.018 40.96 240.869 40.768L241.941 39.408ZM244.981 42C244.693 41.8293 244.4 41.6267 244.101 41.392C243.802 41.168 243.578 40.96 243.429 40.768L244.469 39.408C244.618 39.6 244.842 39.808 245.141 40.032C245.45 40.2667 245.76 40.4693 246.069 40.64L244.981 42ZM254.154 38C253.514 38 253.034 37.84 252.714 37.52C252.554 38.8427 252.074 39.9147 251.274 40.736C250.474 41.5573 249.402 42.1013 248.058 42.368C247.887 42.208 247.711 41.9893 247.53 41.712C247.359 41.4347 247.114 41.024 246.794 40.48C248.287 40.128 249.434 39.712 250.234 39.232C251.045 38.7627 251.519 38.2667 251.658 37.744C251.615 36.9333 251.226 35.4507 250.49 33.296L252.122 32.336C252.335 33.2747 252.533 33.9573 252.714 34.384C252.895 34.8107 253.119 35.104 253.386 35.264C253.653 35.424 254.037 35.504 254.538 35.504L254.154 38ZM265.487 31.424C265.583 31.9147 265.663 32.432 265.727 32.976C265.791 33.52 265.823 33.984 265.823 34.368C265.823 34.9973 265.717 35.5947 265.503 36.16C265.301 36.7147 265.034 37.1627 264.703 37.504C264.373 37.8347 264.042 38 263.711 38C263.093 38 262.57 37.8667 262.143 37.6C261.717 37.3333 261.439 36.9813 261.311 36.544C261.098 37.0347 260.805 37.4027 260.431 37.648C260.069 37.8827 259.647 38 259.167 38C258.634 38 258.191 37.8667 257.839 37.6C257.498 37.3333 257.279 36.9493 257.183 36.448C256.927 37.0027 256.559 37.4027 256.079 37.648C255.599 37.8827 254.959 38 254.159 38C254.106 38 254.063 37.9253 254.031 37.776C253.989 37.6267 253.967 37.424 253.967 37.168C253.967 36.6667 254.026 36.2667 254.143 35.968C254.261 35.6587 254.394 35.504 254.543 35.504C255.375 35.504 255.994 35.3813 256.399 35.136C256.805 34.88 257.034 34.4747 257.087 33.92L257.167 33.008L258.159 32.928V33.92C258.159 34.4213 258.271 34.8107 258.495 35.088C258.73 35.3653 259.077 35.504 259.535 35.504C260.015 35.504 260.383 35.3813 260.639 35.136C260.906 34.88 261.066 34.528 261.119 34.08L261.183 33.232L262.175 33.152V33.936C262.175 34.4373 262.346 34.8267 262.687 35.104C263.039 35.3707 263.525 35.504 264.143 35.504C264.41 35.504 264.565 35.424 264.607 35.264C264.597 35.0187 264.517 34.6133 264.367 34.048C264.229 33.4827 264.063 32.9013 263.871 32.304L265.487 31.424ZM275.929 31.104C276.654 31.104 277.225 31.4187 277.641 32.048C278.057 32.6773 278.265 33.616 278.265 34.864C278.265 35.3333 278.164 35.8133 277.961 36.304C277.769 36.7947 277.524 37.2 277.225 37.52C276.926 37.84 276.633 38 276.345 38C276.068 38 275.438 37.936 274.457 37.808C273.518 37.68 272.937 37.616 272.713 37.616C272.425 37.616 272.217 37.664 272.089 37.76C271.993 37.8773 271.945 38.112 271.945 38.464C271.945 38.912 271.977 39.68 272.041 40.768C272.105 41.856 272.19 43.0187 272.297 44.256L270.569 44.88C270.505 43.3333 270.473 41.5733 270.473 39.6C270.473 38.9813 270.574 38.3733 270.777 37.776C270.99 37.168 271.262 36.6453 271.593 36.208C271.934 35.76 272.292 35.456 272.665 35.296C273.07 33.792 273.534 32.72 274.057 32.08C274.58 31.4293 275.204 31.104 275.929 31.104ZM273.593 35.2C273.86 35.2213 274.356 35.2747 275.081 35.36C276.126 35.488 276.782 35.552 277.049 35.552C277.134 35.552 277.177 35.4933 277.177 35.376C277.134 34.672 276.98 34.1333 276.713 33.76C276.446 33.376 276.062 33.184 275.561 33.184C275.102 33.184 274.713 33.3387 274.393 33.648C274.084 33.9467 273.817 34.464 273.593 35.2ZM280.862 38.144L280.254 26.064L282.222 25.44L282.062 37.904L280.862 38.144ZM287.174 31.36C287.782 31.36 288.316 31.584 288.774 32.032C289.244 32.48 289.606 33.088 289.862 33.856C290.118 34.624 290.246 35.472 290.246 36.4C290.246 38.48 289.58 39.9573 288.246 40.832C287.649 41.248 286.838 41.5947 285.814 41.872C284.79 42.1493 283.697 42.3253 282.534 42.4C282.364 42.2507 282.198 42.0267 282.038 41.728C281.878 41.44 281.633 40.9547 281.302 40.272C286.166 39.952 288.796 39.1573 289.19 37.888L289.174 37.376C288.342 37.7813 287.425 37.984 286.422 37.984C285.74 37.984 285.217 37.808 284.854 37.456C284.492 37.0933 284.31 36.592 284.31 35.952C284.31 35.2373 284.433 34.5227 284.678 33.808C284.924 33.0933 285.265 32.5067 285.702 32.048C286.14 31.5893 286.63 31.36 287.174 31.36ZM285.318 34.848C285.318 35.0933 285.436 35.2853 285.67 35.424C285.905 35.552 286.257 35.616 286.726 35.616C287.484 35.616 288.182 35.5253 288.822 35.344C288.63 34.736 288.358 34.2667 288.006 33.936C287.665 33.6053 287.26 33.44 286.79 33.44C286.396 33.44 286.049 33.5893 285.75 33.888C285.462 34.176 285.318 34.496 285.318 34.848ZM308.655 38C307.908 38 307.332 37.8347 306.927 37.504C306.532 37.1733 306.297 36.656 306.223 35.952C306.063 36.3893 305.887 36.6667 305.695 36.784C305.449 37.04 305.033 37.28 304.447 37.504C303.86 37.7173 303.14 37.8933 302.287 38.032C301.444 38.1707 300.532 38.24 299.551 38.24C297.876 38.24 296.681 37.9733 295.967 37.44C295.263 36.9067 294.911 36.128 294.911 35.104C294.911 34.24 295.161 33.0987 295.663 31.68L296.543 31.984C296.447 32.3147 296.367 32.656 296.303 33.008C296.249 33.36 296.223 33.648 296.223 33.872C296.223 34.4587 296.505 34.9173 297.071 35.248C297.647 35.5787 298.601 35.744 299.935 35.744C300.991 35.744 301.956 35.6853 302.831 35.568C303.705 35.4507 304.409 35.296 304.943 35.104C305.487 34.912 305.807 34.7147 305.903 34.512L305.967 32.624L307.119 32.448V33.632C307.119 34.2827 307.273 34.7573 307.583 35.056C307.892 35.3547 308.377 35.504 309.039 35.504L308.655 38ZM299.631 29.104C299.791 29.296 300.015 29.5093 300.303 29.744C300.601 29.9787 300.884 30.1813 301.151 30.352L300.111 31.712C299.823 31.552 299.529 31.3547 299.231 31.12C298.943 30.8747 298.719 30.656 298.559 30.464L299.631 29.104ZM302.671 31.712C302.383 31.552 302.089 31.3547 301.791 31.12C301.503 30.8747 301.279 30.656 301.119 30.464L302.159 29.104C302.308 29.296 302.537 29.5093 302.847 29.744C303.156 29.9787 303.46 30.1813 303.759 30.352L302.671 31.712ZM312.515 28.336C313.123 28.336 313.651 28.56 314.099 29.008C314.547 29.4453 314.889 30.064 315.123 30.864C315.369 31.6533 315.491 32.5653 315.491 33.6C315.491 34.1227 315.406 34.6507 315.235 35.184C315.075 35.7067 314.851 36.1707 314.563 36.576C314.275 36.9813 313.961 37.264 313.619 37.424C312.819 37.808 311.491 38 309.635 38H308.659C308.606 38 308.563 37.9253 308.531 37.776C308.489 37.6267 308.467 37.424 308.467 37.168C308.467 36.6667 308.526 36.2667 308.643 35.968C308.761 35.6587 308.894 35.504 309.043 35.504H310.051C311.118 35.504 311.993 35.472 312.675 35.408C313.369 35.344 313.891 35.232 314.243 35.072C314.361 35.008 314.419 34.8693 314.419 34.656L314.371 33.856C313.998 34.0053 313.587 34.128 313.139 34.224C312.691 34.3093 312.254 34.352 311.827 34.352C311.155 34.352 310.643 34.192 310.291 33.872C309.95 33.5413 309.779 33.0773 309.779 32.48C309.779 31.7973 309.897 31.136 310.131 30.496C310.366 29.856 310.691 29.3387 311.107 28.944C311.534 28.5387 312.003 28.336 312.515 28.336ZM310.755 31.6C310.777 31.8133 310.899 31.984 311.123 32.112C311.358 32.24 311.683 32.304 312.099 32.304C312.761 32.304 313.417 32.2293 314.067 32.08C313.705 30.8533 313.07 30.24 312.163 30.24C311.801 30.24 311.481 30.3787 311.203 30.656C310.937 30.9227 310.787 31.2373 310.755 31.6ZM312.755 27.088C312.478 26.9387 312.179 26.7413 311.859 26.496C311.539 26.2507 311.278 26.0213 311.075 25.808L312.195 24.368C312.398 24.5813 312.659 24.8107 312.979 25.056C313.299 25.3013 313.598 25.4987 313.875 25.648L312.755 27.088ZM321.04 38C320.027 38 319.264 37.7173 318.752 37.152C318.24 36.576 317.958 35.6693 317.904 34.432L317.808 32.432C317.616 28.6133 317.504 26.5067 317.472 26.112L319.44 25.44V26.16L319.408 30.416L319.392 33.168C319.392 33.9787 319.552 34.5707 319.872 34.944C320.192 35.3173 320.71 35.504 321.424 35.504L321.04 38ZM324.666 31.152C324.794 31.6853 324.906 32.2453 325.002 32.832C325.109 33.4187 325.162 33.8667 325.162 34.176C325.162 34.5813 325.077 35.024 324.906 35.504C324.746 35.9733 324.533 36.4 324.266 36.784C324 37.168 323.717 37.4347 323.418 37.584C322.853 37.8613 322.058 38 321.034 38C320.981 38 320.938 37.9253 320.906 37.776C320.864 37.6267 320.842 37.424 320.842 37.168C320.842 36.6667 320.901 36.2667 321.018 35.968C321.136 35.6587 321.269 35.504 321.418 35.504C322.912 35.504 323.744 35.36 323.914 35.072C323.882 34.816 323.776 34.3947 323.594 33.808C323.413 33.2213 323.216 32.6507 323.002 32.096L324.666 31.152ZM319.146 39.408C319.306 39.6 319.53 39.808 319.818 40.032C320.106 40.2667 320.389 40.4693 320.666 40.64L319.626 42C319.338 41.8293 319.045 41.6267 318.746 41.392C318.448 41.168 318.224 40.96 318.074 40.768L319.146 39.408ZM322.186 42C321.898 41.8293 321.605 41.6267 321.306 41.392C321.008 41.168 320.784 40.96 320.634 40.768L321.674 39.408C321.824 39.6 322.048 39.808 322.346 40.032C322.656 40.2667 322.965 40.4693 323.274 40.64L322.186 42ZM329.45 32.192C329.898 33.8667 330.122 35.3013 330.122 36.496C330.122 38.1173 329.712 39.424 328.89 40.416C328.069 41.4187 326.901 42.0693 325.386 42.368C325.216 42.208 325.04 41.9893 324.858 41.712C324.688 41.4347 324.442 41.024 324.122 40.48C325.616 40.128 326.762 39.712 327.562 39.232C328.373 38.7627 328.848 38.2667 328.986 37.744C328.965 37.3067 328.832 36.6667 328.586 35.824C328.352 34.9707 328.069 34.1013 327.738 33.216L329.45 32.192ZM335.329 29.232C335.809 29.6587 336.438 30.1813 337.217 30.8C337.782 31.248 338.198 31.6 338.465 31.856C338.742 32.1013 338.961 32.3787 339.121 32.688C339.281 32.9973 339.361 33.3547 339.361 33.76C339.361 34.3787 339.217 35.024 338.929 35.696C338.641 36.3573 338.289 36.848 337.873 37.168C337.436 37.5093 336.865 37.7867 336.161 38C335.468 38.2133 334.769 38.32 334.065 38.32C332.678 38.32 331.985 37.6053 331.985 36.176C331.985 35.6853 332.022 35.0667 332.097 34.32L332.993 34.272V34.8C332.993 35.152 333.094 35.4133 333.297 35.584C333.51 35.744 333.873 35.824 334.385 35.824C334.95 35.824 335.526 35.76 336.113 35.632C336.71 35.4933 337.212 35.328 337.617 35.136C338.033 34.9333 338.273 34.7467 338.337 34.576C338.326 34.384 338.193 34.1813 337.937 33.968C337.681 33.744 337.27 33.44 336.705 33.056C335.681 32.352 334.908 31.7493 334.385 31.248L335.329 29.232ZM239.829 58.232C240.309 58.6587 240.938 59.1813 241.717 59.8C242.282 60.248 242.698 60.6 242.965 60.856C243.242 61.1013 243.461 61.3787 243.621 61.688C243.781 61.9973 243.861 62.3547 243.861 62.76C243.861 63.3787 243.717 64.024 243.429 64.696C243.141 65.3573 242.789 65.848 242.373 66.168C241.936 66.5093 241.365 66.7867 240.661 67C239.968 67.2133 239.269 67.32 238.565 67.32C237.178 67.32 236.485 66.6053 236.485 65.176C236.485 64.6853 236.522 64.0667 236.597 63.32L237.493 63.272V63.8C237.493 64.152 237.594 64.4133 237.797 64.584C238.01 64.744 238.373 64.824 238.885 64.824C239.45 64.824 240.026 64.76 240.613 64.632C241.21 64.4933 241.712 64.328 242.117 64.136C242.533 63.9333 242.773 63.7467 242.837 63.576C242.826 63.384 242.693 63.1813 242.437 62.968C242.181 62.744 241.77 62.44 241.205 62.056C240.181 61.352 239.408 60.7493 238.885 60.248L239.829 58.232ZM250.139 67C249.797 67 249.493 66.952 249.227 66.856C248.96 66.76 248.752 66.616 248.603 66.424C248.453 67.1173 248.187 67.752 247.803 68.328C247.429 68.904 246.944 69.3787 246.347 69.752C245.781 70.1253 245.088 70.456 244.267 70.744C243.445 71.0427 242.613 71.2453 241.771 71.352C241.6 71.2133 241.435 71.0213 241.275 70.776C241.115 70.5307 240.912 70.184 240.667 69.736L240.459 69.384C242.645 69.0853 244.336 68.6533 245.531 68.088C246.725 67.5333 247.419 66.9413 247.611 66.312C247.589 66.0027 247.467 65.464 247.243 64.696C247.019 63.928 246.763 63.128 246.475 62.296L248.107 61.336C248.32 62.2747 248.517 62.9573 248.699 63.384C248.88 63.8107 249.104 64.104 249.371 64.264C249.637 64.424 250.021 64.504 250.523 64.504L250.139 67ZM247.611 59.72C247.333 59.5707 247.035 59.3733 246.715 59.128C246.395 58.8827 246.133 58.6533 245.931 58.44L247.051 57C247.253 57.2133 247.515 57.4427 247.835 57.688C248.155 57.9333 248.453 58.1307 248.731 58.28L247.611 59.72ZM256.096 60.04C256.533 60.04 256.885 60.152 257.152 60.376C257.418 60.5893 257.626 60.9307 257.776 61.4C257.872 61.72 257.952 62.1093 258.016 62.568C258.08 63.016 258.112 63.4213 258.112 63.784C258.112 64.2747 258.01 64.776 257.808 65.288C257.616 65.7893 257.365 66.2107 257.056 66.552C256.757 66.8827 256.474 67.048 256.208 67.048C255.77 67.048 255.306 66.9733 254.816 66.824C254.336 66.664 253.904 66.4507 253.52 66.184C253.146 65.9067 252.896 65.5973 252.768 65.256C252.394 65.9067 252 66.36 251.584 66.616C251.178 66.872 250.698 67 250.144 67C250.09 67 250.048 66.9253 250.016 66.776C249.973 66.6267 249.952 66.424 249.952 66.168C249.952 65.6667 250.01 65.2667 250.128 64.968C250.245 64.6587 250.378 64.504 250.528 64.504C250.922 64.504 251.248 64.4613 251.504 64.376C251.76 64.28 251.994 64.1147 252.208 63.88C252.421 63.6347 252.645 63.288 252.88 62.84C253.264 62.0933 253.605 61.5227 253.904 61.128C254.202 60.7333 254.517 60.456 254.848 60.296C255.189 60.1253 255.605 60.04 256.096 60.04ZM253.616 63.336C253.84 63.6773 254.277 63.976 254.928 64.232C255.589 64.4773 256.24 64.6 256.88 64.6C256.965 64.6 257.008 64.5307 257.008 64.392C256.997 64.2 256.954 63.9173 256.88 63.544C256.805 63.1707 256.725 62.8773 256.64 62.664C256.49 62.2693 256.197 62.072 255.76 62.072C255.237 62.072 254.821 62.1627 254.512 62.344C254.202 62.5253 253.904 62.856 253.616 63.336ZM262.357 61.192C262.794 62.888 263.013 64.1947 263.013 65.112C263.013 66.0827 262.805 66.9733 262.389 67.784C261.973 68.6053 261.375 69.2613 260.597 69.752C260.031 70.1253 259.338 70.456 258.517 70.744C257.695 71.0427 256.863 71.2453 256.021 71.352C255.85 71.2133 255.685 71.0213 255.525 70.776C255.365 70.5307 255.162 70.184 254.917 69.736L254.709 69.384C256.895 69.0853 258.586 68.6533 259.781 68.088C260.975 67.5333 261.669 66.9413 261.861 66.312C261.839 66.0133 261.711 65.48 261.477 64.712C261.242 63.9333 260.965 63.1013 260.645 62.216L262.357 61.192ZM268.572 67C267.558 67 266.796 66.7173 266.284 66.152C265.772 65.576 265.489 64.6693 265.436 63.432L265.34 61.432C265.148 57.6133 265.036 55.5067 265.004 55.112L266.972 54.44V55.16L266.94 59.416L266.924 62.168C266.924 62.9787 267.084 63.5707 267.404 63.944C267.724 64.3173 268.241 64.504 268.956 64.504L268.572 67ZM269.878 59.352C270.678 59.9067 271.296 60.3973 271.734 60.824C272.182 61.24 272.496 61.6293 272.678 61.992C272.87 62.3547 272.966 62.744 272.966 63.16C272.966 63.5227 272.886 63.9333 272.726 64.392C272.576 64.84 272.368 65.2613 272.102 65.656C271.846 66.04 271.558 66.3173 271.238 66.488C270.619 66.8293 269.728 67 268.566 67C268.512 67 268.47 66.9253 268.438 66.776C268.395 66.6267 268.374 66.424 268.374 66.168C268.374 65.6667 268.432 65.2667 268.55 64.968C268.667 64.6587 268.8 64.504 268.95 64.504C269.728 64.504 270.368 64.456 270.87 64.36C271.371 64.2533 271.68 64.104 271.798 63.912C271.723 63.4853 271.435 63.0213 270.934 62.52C270.443 62.008 269.59 61.3307 268.374 60.488L269.062 57.848L276.806 54.408L276.822 56.392L269.878 59.352ZM284.375 65.976C284.097 65.8267 283.799 65.6293 283.479 65.384C283.159 65.1387 282.897 64.9093 282.695 64.696L283.815 63.256C284.017 63.4693 284.279 63.6987 284.599 63.944C284.919 64.1893 285.217 64.3867 285.495 64.536L284.375 65.976ZM291.463 67C290.961 67 290.567 66.9573 290.279 66.872C289.991 66.776 289.777 66.6373 289.639 66.456C289.575 67.224 289.409 67.912 289.143 68.52C288.876 69.1387 288.54 69.608 288.135 69.928C287.591 70.3547 286.817 70.7173 285.815 71.016C284.823 71.3253 283.836 71.48 282.855 71.48C281.436 71.48 280.369 71.1707 279.655 70.552C278.94 69.9333 278.583 69.0533 278.583 67.912C278.583 66.728 278.913 65.128 279.575 63.112L280.503 63.384C280.129 64.792 279.943 65.8907 279.943 66.68C279.943 67.4053 280.225 67.9707 280.791 68.376C281.356 68.7813 282.193 68.984 283.303 68.984C283.953 68.984 284.636 68.9147 285.351 68.776C286.076 68.6373 286.721 68.456 287.287 68.232C287.852 68.008 288.241 67.7787 288.455 67.544C288.529 67.4373 288.567 67.272 288.567 67.048C288.567 66.6107 288.476 65.9387 288.295 65.032C288.124 64.1147 287.911 63.1973 287.655 62.28L289.287 61.32C289.436 62.2373 289.596 62.9147 289.767 63.352C289.948 63.7893 290.193 64.0933 290.503 64.264C290.812 64.424 291.26 64.504 291.847 64.504L291.463 67ZM298.224 60.152C298.352 60.6853 298.464 61.2453 298.56 61.832C298.667 62.4187 298.72 62.8667 298.72 63.176C298.72 63.5813 298.635 64.024 298.464 64.504C298.304 64.9733 298.091 65.4 297.824 65.784C297.557 66.168 297.275 66.4347 296.976 66.584C296.656 66.744 296.203 66.856 295.616 66.92C295.029 66.9733 294.203 67 293.136 67H291.456C291.403 67 291.36 66.9253 291.328 66.776C291.285 66.6267 291.264 66.424 291.264 66.168C291.264 65.6667 291.323 65.2667 291.44 64.968C291.557 64.6587 291.691 64.504 291.84 64.504H293.52C294.875 64.504 295.851 64.4667 296.448 64.392C297.045 64.3173 297.387 64.2107 297.472 64.072C297.44 63.816 297.333 63.3947 297.152 62.808C296.971 62.2213 296.773 61.6507 296.56 61.096L298.224 60.152ZM292.816 68.408C292.976 68.6 293.2 68.808 293.488 69.032C293.776 69.2667 294.059 69.4693 294.336 69.64L293.296 71C293.008 70.8293 292.715 70.6267 292.416 70.392C292.117 70.168 291.893 69.96 291.744 69.768L292.816 68.408ZM295.856 71C295.568 70.8293 295.275 70.6267 294.976 70.392C294.677 70.168 294.453 69.96 294.304 69.768L295.344 68.408C295.493 68.6 295.717 68.808 296.016 69.032C296.325 69.2667 296.635 69.4693 296.944 69.64L295.856 71ZM305.029 67C304.389 67 303.909 66.84 303.589 66.52C303.429 67.8427 302.949 68.9147 302.149 69.736C301.349 70.5573 300.277 71.1013 298.933 71.368C298.762 71.208 298.586 70.9893 298.405 70.712C298.234 70.4347 297.989 70.024 297.669 69.48C299.162 69.128 300.309 68.712 301.109 68.232C301.92 67.7627 302.394 67.2667 302.533 66.744C302.49 65.9333 302.101 64.4507 301.365 62.296L302.997 61.336C303.21 62.2747 303.408 62.9573 303.589 63.384C303.77 63.8107 303.994 64.104 304.261 64.264C304.528 64.424 304.912 64.504 305.413 64.504L305.029 67ZM311.114 67C309.696 67 308.874 66.4133 308.65 65.24C308.394 65.8373 307.994 66.28 307.45 66.568C306.917 66.856 306.197 67 305.29 67H305.034C304.981 67 304.938 66.9253 304.906 66.776C304.864 66.6267 304.842 66.424 304.842 66.168C304.842 65.6667 304.901 65.2667 305.018 64.968C305.136 64.6587 305.269 64.504 305.418 64.504H305.674C306.634 64.504 307.312 64.376 307.706 64.12C308.101 63.864 308.309 63.4587 308.33 62.904L308.378 61.624L309.53 61.448V62.632C309.53 63.2827 309.685 63.7573 309.994 64.056C310.314 64.3547 310.816 64.504 311.498 64.504L311.114 67ZM306.33 57.64C306.49 57.832 306.714 58.0453 307.002 58.28C307.301 58.5147 307.584 58.7173 307.85 58.888L306.81 60.248C306.522 60.088 306.229 59.8907 305.93 59.656C305.642 59.4107 305.418 59.192 305.258 59L306.33 57.64ZM309.37 60.248C309.082 60.088 308.789 59.8907 308.49 59.656C308.202 59.4107 307.978 59.192 307.818 59L308.858 57.64C309.008 57.832 309.237 58.0453 309.546 58.28C309.856 58.5147 310.16 58.7173 310.458 58.888L309.37 60.248ZM320.808 67C319.592 67 318.814 66.4613 318.472 65.384C318.323 65.9387 318.11 66.3867 317.832 66.728C317.555 67.0693 317.272 67.24 316.984 67.24C316.579 67.24 316.142 67.1547 315.672 66.984C315.214 66.8133 314.798 66.584 314.424 66.296C314.062 65.9973 313.806 65.6773 313.656 65.336C313.283 65.9547 312.899 66.3867 312.504 66.632C312.11 66.8773 311.646 67 311.112 67C311.059 67 311.016 66.9253 310.984 66.776C310.942 66.6267 310.92 66.424 310.92 66.168C310.92 65.6667 310.979 65.2667 311.096 64.968C311.214 64.6587 311.347 64.504 311.496 64.504C311.902 64.504 312.232 64.4613 312.488 64.376C312.755 64.28 312.99 64.12 313.192 63.896C313.406 63.6613 313.619 63.3253 313.832 62.888C314.312 61.9173 314.824 61.24 315.368 60.856C315.912 60.4613 316.584 60.264 317.384 60.264C317.811 60.264 318.136 60.376 318.36 60.6C318.595 60.8133 318.76 61.1707 318.856 61.672C318.995 62.4613 319.155 63.0587 319.336 63.464C319.518 63.8587 319.747 64.1307 320.024 64.28C320.312 64.4293 320.702 64.504 321.192 64.504L320.808 67ZM314.536 63.448C314.771 63.7893 315.208 64.0987 315.848 64.376C316.499 64.6427 317.102 64.7813 317.656 64.792C317.72 64.728 317.752 64.5573 317.752 64.28C317.752 63.5653 317.699 63.0693 317.592 62.792C317.496 62.504 317.315 62.36 317.048 62.36C316.366 62.36 315.832 62.4453 315.448 62.616C315.075 62.7867 314.771 63.064 314.536 63.448ZM323.2 58.888C324.128 59.9973 324.773 60.8613 325.136 61.48C325.498 62.0987 325.68 62.664 325.68 63.176C325.68 63.5707 325.6 64.0027 325.44 64.472C325.28 64.9307 325.066 65.3467 324.8 65.72C324.533 66.0827 324.245 66.3387 323.936 66.488C323.296 66.8293 322.256 67 320.816 67C320.762 67 320.72 66.9253 320.688 66.776C320.645 66.6267 320.624 66.424 320.624 66.168C320.624 65.6667 320.682 65.2667 320.8 64.968C320.917 64.6587 321.05 64.504 321.2 64.504C322.096 64.504 322.837 64.456 323.424 64.36C324.021 64.2533 324.389 64.12 324.528 63.96C324.485 63.64 324.256 63.1973 323.84 62.632C323.434 62.056 322.725 61.1707 321.712 59.976L322.416 57.368L329.248 54.488L329.232 56.504L323.2 58.888ZM335.025 67C334.011 67 333.249 66.7173 332.737 66.152C332.225 65.576 331.942 64.6693 331.889 63.432L331.793 61.432C331.601 57.6133 331.489 55.5067 331.457 55.112L333.425 54.44V55.16L333.393 59.416L333.377 62.168C333.377 62.9787 333.537 63.5707 333.857 63.944C334.177 64.3173 334.694 64.504 335.409 64.504L335.025 67ZM338.875 60.152C339.003 60.6853 339.115 61.2453 339.211 61.832C339.317 62.4187 339.371 62.8667 339.371 63.176C339.371 63.5813 339.285 64.024 339.115 64.504C338.955 64.9733 338.741 65.4 338.475 65.784C338.208 66.168 337.925 66.4347 337.627 66.584C337.061 66.8613 336.192 67 335.019 67C334.965 67 334.923 66.9253 334.891 66.776C334.848 66.6267 334.827 66.424 334.827 66.168C334.827 65.6667 334.885 65.2667 335.003 64.968C335.12 64.6587 335.253 64.504 335.403 64.504C336.288 64.504 336.939 64.4667 337.355 64.392C337.781 64.3173 338.037 64.2107 338.123 64.072C338.091 63.8053 337.984 63.384 337.803 62.808C337.621 62.2213 337.424 61.6507 337.211 61.096L338.875 60.152ZM336.507 71.128C336.229 70.9787 335.931 70.7813 335.611 70.536C335.291 70.2907 335.029 70.0613 334.827 69.848L335.947 68.408C336.149 68.6213 336.411 68.8507 336.731 69.096C337.051 69.3413 337.349 69.5387 337.627 69.688L336.507 71.128Z" fill="#FDFDFD"/>
<path opacity="0.8" d="M204.972 99C204.372 99 203.9 98.864 203.556 98.592C203.22 98.32 202.992 97.86 202.872 97.212C202.872 97.34 202.876 97.428 202.884 97.476C202.708 97.596 202.412 97.696 201.996 97.776C201.588 97.848 201.188 97.884 200.796 97.884C200.316 97.884 199.956 97.796 199.716 97.62C199.476 97.436 199.356 97.2 199.356 96.912C199.356 96.6 199.46 96.244 199.668 95.844C199.876 95.444 200.136 95.108 200.448 94.836C200.68 94.628 200.94 94.424 201.228 94.224C201.516 94.016 201.916 93.74 202.428 93.396L202.32 92.568L203.34 92.124C203.38 92.452 203.44 93.124 203.52 94.14C203.584 95.004 203.632 95.576 203.664 95.856C203.728 96.456 203.868 96.884 204.084 97.14C204.308 97.396 204.684 97.524 205.212 97.524L204.972 99ZM200.112 96.12C200.128 96.224 200.224 96.308 200.4 96.372C200.584 96.428 200.832 96.456 201.144 96.456C201.576 96.456 202.116 96.396 202.764 96.276L202.548 94.392C200.948 95.328 200.136 95.904 200.112 96.12ZM207.391 96.228C207.383 96.716 207.271 97.208 207.055 97.704C206.847 98.192 206.619 98.516 206.371 98.676C206.051 98.892 205.583 99 204.967 99C204.935 99 204.907 98.956 204.883 98.868C204.851 98.78 204.835 98.664 204.835 98.52C204.835 98.24 204.875 98.004 204.955 97.812C205.027 97.62 205.111 97.524 205.207 97.524C206.031 97.524 206.491 97.388 206.587 97.116L206.227 90.048L207.415 89.664L207.391 96.228ZM211.636 99C210.908 99 210.364 98.8 210.004 98.4C209.652 97.992 209.46 97.344 209.428 96.456L209.392 95.484C209.352 94.516 209.312 93.532 209.272 92.532C209.232 91.524 209.196 90.704 209.164 90.072L210.364 89.664L210.352 95.7C210.344 96.316 210.46 96.776 210.7 97.08C210.948 97.376 211.34 97.524 211.876 97.524L211.636 99ZM219.891 94.5C219.971 94.868 220.031 95.256 220.071 95.664C220.119 96.064 220.143 96.404 220.143 96.684C220.143 97.076 220.071 97.452 219.927 97.812C219.791 98.164 219.615 98.452 219.399 98.676C219.191 98.892 218.979 99 218.763 99C218.323 99 217.943 98.9 217.623 98.7C217.303 98.5 217.095 98.24 216.999 97.92C216.671 98.64 216.143 99 215.415 99C215.023 99 214.695 98.904 214.431 98.712C214.167 98.52 213.999 98.244 213.927 97.884C213.727 98.276 213.447 98.56 213.087 98.736C212.727 98.912 212.243 99 211.635 99C211.603 99 211.575 98.956 211.551 98.868C211.519 98.78 211.503 98.664 211.503 98.52C211.503 98.24 211.543 98.004 211.623 97.812C211.695 97.62 211.779 97.524 211.875 97.524C212.531 97.524 213.015 97.428 213.327 97.236C213.639 97.036 213.819 96.716 213.867 96.276L213.927 95.604L214.563 95.544V96.324C214.563 96.692 214.655 96.984 214.839 97.2C215.023 97.416 215.287 97.524 215.631 97.524C215.999 97.524 216.287 97.428 216.495 97.236C216.711 97.036 216.839 96.764 216.879 96.42L216.927 95.772L217.563 95.712V96.336C217.563 96.704 217.695 96.996 217.959 97.212C218.231 97.42 218.595 97.524 219.051 97.524C219.139 97.524 219.211 97.508 219.267 97.476C219.331 97.436 219.371 97.388 219.387 97.332C219.371 97.108 219.311 96.78 219.207 96.348C219.111 95.908 219.003 95.488 218.883 95.088L219.891 94.5ZM233.881 99C233.473 99 233.093 98.932 232.741 98.796C232.389 98.652 232.001 98.408 231.577 98.064C231.153 97.712 230.633 97.208 230.017 96.552C229.969 96.992 229.849 97.38 229.657 97.716C229.473 98.052 229.253 98.288 228.997 98.424C228.589 98.648 228.013 98.832 227.269 98.976C226.525 99.112 225.753 99.18 224.953 99.18C223.849 99.18 223.049 98.992 222.553 98.616C222.065 98.24 221.821 97.692 221.821 96.972C221.821 96.388 221.993 95.604 222.337 94.62L222.889 94.812C222.721 95.42 222.637 95.904 222.637 96.264C222.637 96.704 222.841 97.056 223.249 97.32C223.665 97.576 224.317 97.704 225.205 97.704C226.205 97.704 227.105 97.628 227.905 97.476C228.705 97.324 229.185 97.136 229.345 96.912C229.321 96.704 229.249 96.484 229.129 96.252C229.009 96.02 228.785 95.716 228.457 95.34C228.137 94.964 227.673 94.48 227.065 93.888L227.509 92.172L233.221 89.652L233.233 90.876L227.893 93.132L230.281 95.316C230.969 95.932 231.517 96.396 231.925 96.708C232.341 97.012 232.713 97.224 233.041 97.344C233.369 97.464 233.729 97.524 234.121 97.524L233.881 99ZM236.553 94.332C236.641 94.708 236.721 95.116 236.793 95.556C236.865 95.996 236.901 96.324 236.901 96.54C236.901 96.932 236.789 97.352 236.565 97.8C236.349 98.24 236.097 98.536 235.809 98.688C235.409 98.896 234.765 99 233.877 99C233.845 99 233.817 98.956 233.793 98.868C233.761 98.78 233.745 98.664 233.745 98.52C233.745 98.24 233.785 98.004 233.865 97.812C233.937 97.62 234.021 97.524 234.117 97.524C235.341 97.524 236.013 97.412 236.133 97.188C236.109 96.964 236.037 96.632 235.917 96.192C235.797 95.744 235.665 95.324 235.521 94.932L236.553 94.332ZM233.613 100.188C233.717 100.308 233.865 100.448 234.057 100.608C234.249 100.768 234.449 100.912 234.657 101.04L233.937 101.94C233.737 101.812 233.537 101.668 233.337 101.508C233.137 101.356 232.981 101.216 232.869 101.088L233.613 100.188ZM235.833 101.94C235.625 101.812 235.421 101.668 235.221 101.508C235.021 101.356 234.869 101.216 234.765 101.088L235.485 100.188C235.589 100.316 235.741 100.456 235.941 100.608C236.141 100.768 236.349 100.912 236.565 101.04L235.833 101.94ZM249.029 99C249.109 99.112 249.149 99.252 249.149 99.42C249.149 99.724 249.065 100.048 248.897 100.392C248.729 100.736 248.505 101.02 248.225 101.244C247.761 101.604 247.117 101.896 246.293 102.12C245.477 102.352 244.661 102.468 243.845 102.468C242.773 102.468 241.973 102.244 241.445 101.796C240.917 101.356 240.653 100.732 240.653 99.924C240.653 99.036 240.885 97.892 241.349 96.492L241.925 96.66C241.637 97.74 241.493 98.584 241.493 99.192C241.493 99.76 241.717 100.2 242.165 100.512C242.613 100.832 243.269 100.992 244.133 100.992C244.861 100.992 245.553 100.916 246.209 100.764C246.873 100.62 247.413 100.448 247.829 100.248C248.245 100.048 248.465 99.876 248.489 99.732C248.465 99.604 248.357 99.488 248.165 99.384C247.981 99.28 247.657 99.176 247.193 99.072C246.737 98.968 246.093 98.852 245.261 98.724L245.741 97.464C246.557 97.504 247.597 97.524 248.861 97.524H249.833L249.593 99H249.029ZM252.016 96.228C252.008 96.716 251.896 97.208 251.68 97.704C251.472 98.192 251.244 98.516 250.996 98.676C250.676 98.892 250.208 99 249.592 99C249.56 99 249.532 98.956 249.508 98.868C249.476 98.78 249.46 98.664 249.46 98.52C249.46 98.24 249.5 98.004 249.58 97.812C249.652 97.62 249.736 97.524 249.832 97.524C250.656 97.524 251.116 97.388 251.212 97.116L250.852 90.048L252.04 89.664L252.016 96.228ZM254.149 99.096L253.789 90.048L254.989 89.664L254.929 98.94L254.149 99.096ZM264.433 99C263.833 99 263.361 98.864 263.017 98.592C262.681 98.32 262.453 97.86 262.333 97.212C262.333 97.34 262.337 97.428 262.345 97.476C262.169 97.596 261.873 97.696 261.457 97.776C261.049 97.848 260.649 97.884 260.257 97.884C259.777 97.884 259.417 97.796 259.177 97.62C258.937 97.436 258.817 97.2 258.817 96.912C258.817 96.6 258.921 96.244 259.129 95.844C259.337 95.444 259.597 95.108 259.909 94.836C260.141 94.628 260.401 94.424 260.689 94.224C260.977 94.016 261.377 93.74 261.889 93.396L261.781 92.568L262.801 92.124C262.841 92.452 262.901 93.124 262.981 94.14C263.045 95.004 263.093 95.576 263.125 95.856C263.189 96.456 263.329 96.884 263.545 97.14C263.769 97.396 264.145 97.524 264.673 97.524L264.433 99ZM259.573 96.12C259.589 96.224 259.685 96.308 259.861 96.372C260.045 96.428 260.293 96.456 260.605 96.456C261.037 96.456 261.577 96.396 262.225 96.276L262.009 94.392C260.409 95.328 259.597 95.904 259.573 96.12ZM266.444 92.616C266.852 92.96 267.252 93.26 267.644 93.516C268.044 93.772 268.548 94.08 269.156 94.44C269.732 94.776 270.172 95.052 270.476 95.268C270.788 95.484 271.04 95.724 271.232 95.988C271.432 96.252 271.532 96.548 271.532 96.876C271.532 97.228 271.452 97.584 271.292 97.944C271.14 98.304 270.94 98.6 270.692 98.832C270.452 99.064 270.212 99.18 269.972 99.18C269.644 99.18 269.164 99.112 268.532 98.976C267.9 98.84 267.348 98.688 266.876 98.52C266.132 98.84 265.316 99 264.428 99C264.396 99 264.368 98.956 264.344 98.868C264.312 98.78 264.296 98.664 264.296 98.52C264.296 98.24 264.336 98.004 264.416 97.812C264.488 97.62 264.572 97.524 264.668 97.524L265.424 97.5C265.36 97.324 265.328 97.144 265.328 96.96C265.328 96.504 265.452 96.028 265.7 95.532C265.948 95.028 266.252 94.624 266.612 94.32C266.38 94.144 266.16 93.972 265.952 93.804L266.444 92.616ZM265.976 96.312C265.976 96.504 266.072 96.684 266.264 96.852C266.456 97.02 266.736 97.16 267.104 97.272C267.824 97.072 268.252 96.796 268.388 96.444C268.372 96.06 268.256 95.716 268.04 95.412C267.832 95.108 267.588 94.956 267.308 94.956C267.108 94.956 266.904 95.04 266.696 95.208C266.488 95.376 266.316 95.572 266.18 95.796C266.044 96.012 265.976 96.184 265.976 96.312ZM268.34 97.488C268.78 97.6 269.2 97.692 269.6 97.764C270.008 97.836 270.324 97.872 270.548 97.872C270.636 97.856 270.704 97.8 270.752 97.704C270.808 97.6 270.836 97.476 270.836 97.332C270.836 97.092 270.692 96.864 270.404 96.648C270.116 96.424 269.644 96.128 268.988 95.76V95.856C268.988 96.432 268.772 96.976 268.34 97.488ZM275.667 99C274.939 99 274.395 98.8 274.035 98.4C273.683 97.992 273.491 97.344 273.459 96.456L273.423 95.484C273.383 94.516 273.343 93.532 273.303 92.532C273.263 91.524 273.227 90.704 273.195 90.072L274.395 89.664L274.383 95.7C274.375 96.316 274.491 96.776 274.731 97.08C274.979 97.376 275.371 97.524 275.907 97.524L275.667 99ZM280.011 94.224C280.307 94.224 280.547 94.3 280.731 94.452C280.923 94.604 281.067 94.836 281.163 95.148C281.235 95.388 281.295 95.672 281.343 96C281.399 96.328 281.427 96.636 281.427 96.924C281.427 97.244 281.359 97.568 281.223 97.896C281.095 98.216 280.931 98.484 280.731 98.7C280.531 98.908 280.339 99.012 280.155 99.012C279.867 99.012 279.547 98.96 279.195 98.856C278.843 98.744 278.523 98.588 278.235 98.388C277.955 98.188 277.767 97.956 277.671 97.692C277.383 98.188 277.083 98.532 276.771 98.724C276.467 98.908 276.099 99 275.667 99C275.635 99 275.607 98.956 275.583 98.868C275.551 98.78 275.535 98.664 275.535 98.52C275.535 98.24 275.575 98.004 275.655 97.812C275.727 97.62 275.811 97.524 275.907 97.524C276.355 97.524 276.707 97.436 276.963 97.26C277.227 97.084 277.483 96.744 277.731 96.24C277.995 95.704 278.231 95.296 278.439 95.016C278.655 94.728 278.883 94.524 279.123 94.404C279.363 94.284 279.659 94.224 280.011 94.224ZM278.199 96.564C278.367 96.836 278.699 97.076 279.195 97.284C279.699 97.484 280.175 97.584 280.623 97.584C280.679 97.584 280.707 97.524 280.707 97.404C280.707 97.26 280.675 97.024 280.611 96.696C280.547 96.36 280.479 96.1 280.407 95.916C280.287 95.628 280.083 95.484 279.795 95.484C279.419 95.484 279.115 95.56 278.883 95.712C278.651 95.864 278.431 96.132 278.223 96.516L278.199 96.564ZM298.17 99C297.242 99 296.67 98.66 296.454 97.98C296.31 98.332 296.13 98.592 295.914 98.76C295.698 98.92 295.47 99 295.23 99C294.894 99 294.606 98.908 294.366 98.724C294.134 98.54 293.986 98.292 293.922 97.98C293.578 98.66 293.058 99 292.362 99C292.146 99 291.95 98.968 291.774 98.904C291.606 98.84 291.47 98.748 291.366 98.628C291.334 99.18 291.222 99.676 291.03 100.116C290.846 100.556 290.61 100.892 290.322 101.124C289.914 101.46 289.318 101.748 288.534 101.988C287.75 102.236 286.986 102.36 286.242 102.36C285.194 102.36 284.406 102.136 283.878 101.688C283.358 101.248 283.098 100.624 283.098 99.816C283.098 98.928 283.33 97.784 283.794 96.384L284.37 96.552C284.082 97.632 283.938 98.476 283.938 99.084C283.938 99.644 284.158 100.084 284.598 100.404C285.038 100.724 285.678 100.884 286.518 100.884C287.038 100.884 287.586 100.82 288.162 100.692C288.738 100.572 289.246 100.416 289.686 100.224C290.134 100.032 290.43 99.844 290.574 99.66C290.63 99.58 290.658 99.448 290.658 99.264C290.658 98.92 290.594 98.412 290.466 97.74C290.346 97.06 290.194 96.376 290.01 95.688L291.018 95.1C291.13 95.764 291.25 96.268 291.378 96.612C291.506 96.956 291.662 97.196 291.846 97.332C292.03 97.46 292.274 97.524 292.578 97.524C292.946 97.524 293.234 97.428 293.442 97.236C293.65 97.036 293.774 96.764 293.814 96.42L293.862 95.772L294.498 95.712V96.336C294.498 96.712 294.582 97.004 294.75 97.212C294.926 97.42 295.158 97.524 295.446 97.524C295.926 97.524 296.178 97.136 296.202 96.36L296.226 95.328L296.97 95.196V96.12C296.97 96.592 297.082 96.944 297.306 97.176C297.538 97.408 297.906 97.524 298.41 97.524L298.17 99ZM293.874 92.316C293.698 92.212 293.518 92.084 293.334 91.932C293.15 91.772 293.01 91.628 292.914 91.5L293.622 90.624C293.726 90.744 293.866 90.88 294.042 91.032C294.226 91.184 294.41 91.32 294.594 91.44L293.874 92.316ZM292.842 92.4C292.946 92.52 293.094 92.66 293.286 92.82C293.478 92.98 293.678 93.124 293.886 93.252L293.166 94.152C292.966 94.024 292.766 93.884 292.566 93.732C292.366 93.572 292.21 93.428 292.098 93.3L292.842 92.4ZM295.062 94.152C294.854 94.024 294.65 93.884 294.45 93.732C294.25 93.572 294.098 93.428 293.994 93.3L294.714 92.4C294.818 92.528 294.97 92.672 295.17 92.832C295.37 92.984 295.578 93.124 295.794 93.252L295.062 94.152ZM306.423 94.5C306.503 94.868 306.563 95.256 306.603 95.664C306.651 96.064 306.675 96.404 306.675 96.684C306.675 97.076 306.603 97.452 306.459 97.812C306.323 98.164 306.147 98.452 305.931 98.676C305.723 98.892 305.511 99 305.295 99C304.855 99 304.475 98.9 304.155 98.7C303.835 98.5 303.627 98.24 303.531 97.92C303.203 98.64 302.675 99 301.947 99C301.555 99 301.227 98.904 300.963 98.712C300.699 98.52 300.531 98.244 300.459 97.884C300.259 98.276 299.979 98.56 299.619 98.736C299.259 98.912 298.775 99 298.167 99C298.135 99 298.107 98.956 298.083 98.868C298.051 98.78 298.035 98.664 298.035 98.52C298.035 98.24 298.075 98.004 298.155 97.812C298.227 97.62 298.311 97.524 298.407 97.524C299.063 97.524 299.547 97.428 299.859 97.236C300.171 97.036 300.351 96.716 300.399 96.276L300.459 95.604L301.095 95.544V96.324C301.095 96.692 301.187 96.984 301.371 97.2C301.555 97.416 301.819 97.524 302.163 97.524C302.531 97.524 302.819 97.428 303.027 97.236C303.243 97.036 303.371 96.764 303.411 96.42L303.459 95.772L304.095 95.712V96.336C304.095 96.704 304.227 96.996 304.491 97.212C304.763 97.42 305.127 97.524 305.583 97.524C305.671 97.524 305.743 97.508 305.799 97.476C305.863 97.436 305.903 97.388 305.919 97.332C305.903 97.108 305.843 96.78 305.739 96.348C305.643 95.908 305.535 95.488 305.415 95.088L306.423 94.5ZM303.303 92.316C303.127 92.212 302.947 92.084 302.763 91.932C302.579 91.772 302.439 91.628 302.343 91.5L303.051 90.624C303.155 90.744 303.295 90.88 303.471 91.032C303.655 91.184 303.839 91.32 304.023 91.44L303.303 92.316ZM302.271 92.4C302.375 92.52 302.523 92.66 302.715 92.82C302.907 92.98 303.107 93.124 303.315 93.252L302.595 94.152C302.395 94.024 302.195 93.884 301.995 93.732C301.795 93.572 301.639 93.428 301.527 93.3L302.271 92.4ZM304.491 94.152C304.283 94.024 304.079 93.884 303.879 93.732C303.679 93.572 303.527 93.428 303.423 93.3L304.143 92.4C304.247 92.528 304.399 92.672 304.599 92.832C304.799 92.984 305.007 93.124 305.223 93.252L304.491 94.152ZM315.802 93.924C316.154 93.924 316.498 94.044 316.834 94.284C317.178 94.516 317.454 94.816 317.662 95.184C317.878 95.552 317.986 95.924 317.986 96.3C317.986 96.716 317.862 97.136 317.614 97.56C317.374 97.984 317.082 98.276 316.738 98.436C316.346 98.62 315.842 98.76 315.226 98.856C314.618 98.952 313.958 99 313.246 99C312.718 99 312.21 98.964 311.722 98.892C311.242 98.82 310.866 98.716 310.594 98.58C310.562 98.516 310.534 98.392 310.51 98.208C310.494 98.024 310.482 97.844 310.474 97.668L310.438 97.308C310.838 97.364 311.258 97.412 311.698 97.452L312.49 96.468L312.226 90.048L313.402 89.664L313.342 95.496C313.846 94.968 314.294 94.576 314.686 94.32C315.086 94.056 315.458 93.924 315.802 93.924ZM312.406 97.5C312.87 97.516 313.238 97.524 313.51 97.524C314.166 97.524 314.77 97.496 315.322 97.44C315.874 97.376 316.318 97.296 316.654 97.2C316.998 97.096 317.198 96.988 317.254 96.876C317.238 96.676 317.138 96.448 316.954 96.192C316.778 95.928 316.55 95.704 316.27 95.52C315.99 95.336 315.706 95.244 315.418 95.244C315.05 95.244 314.634 95.424 314.17 95.784C313.706 96.136 313.118 96.708 312.406 97.5ZM322.109 99C321.381 99 320.837 98.8 320.477 98.4C320.125 97.992 319.933 97.344 319.901 96.456L319.865 95.484C319.825 94.516 319.785 93.532 319.745 92.532C319.705 91.524 319.669 90.704 319.637 90.072L320.837 89.664L320.825 95.7C320.817 96.316 320.933 96.776 321.173 97.08C321.421 97.376 321.813 97.524 322.349 97.524L322.109 99ZM331.72 99C330.792 99 330.212 98.66 329.98 97.98C329.836 98.332 329.656 98.592 329.44 98.76C329.224 98.92 328.996 99 328.756 99C328.428 99 328.144 98.908 327.904 98.724C327.672 98.54 327.52 98.292 327.448 97.98C327.112 98.66 326.592 99 325.888 99C325.496 99 325.168 98.904 324.904 98.712C324.64 98.52 324.472 98.244 324.4 97.884C324.2 98.276 323.92 98.56 323.56 98.736C323.2 98.912 322.716 99 322.108 99C322.076 99 322.048 98.956 322.024 98.868C321.992 98.78 321.976 98.664 321.976 98.52C321.976 98.24 322.016 98.004 322.096 97.812C322.168 97.62 322.252 97.524 322.348 97.524C323.004 97.524 323.488 97.428 323.8 97.236C324.112 97.036 324.292 96.716 324.34 96.276L324.4 95.604L325.036 95.544V96.324C325.036 96.692 325.128 96.984 325.312 97.2C325.496 97.416 325.76 97.524 326.104 97.524C326.472 97.524 326.76 97.428 326.968 97.236C327.184 97.036 327.312 96.764 327.352 96.42L327.4 95.772L328.036 95.712V96.336C328.036 96.712 328.12 97.004 328.288 97.212C328.456 97.42 328.684 97.524 328.972 97.524C329.452 97.524 329.704 97.136 329.728 96.36L329.764 95.328L330.508 95.196V96.12C330.508 96.592 330.62 96.944 330.844 97.176C331.076 97.408 331.448 97.524 331.96 97.524L331.72 99ZM334.501 92.328C334.933 92.328 335.305 92.488 335.617 92.808C335.937 93.128 336.177 93.572 336.337 94.14C336.505 94.7 336.589 95.348 336.589 96.084C336.589 96.604 336.477 97.104 336.253 97.584C336.029 98.064 335.745 98.388 335.401 98.556C335.105 98.708 334.697 98.82 334.177 98.892C333.657 98.964 333.073 99 332.425 99H331.717C331.685 99 331.657 98.956 331.633 98.868C331.601 98.78 331.585 98.664 331.585 98.52C331.585 98.24 331.625 98.004 331.705 97.812C331.777 97.62 331.861 97.524 331.957 97.524H332.737C334.297 97.524 335.313 97.4 335.785 97.152C335.881 97.112 335.929 96.996 335.929 96.804L335.905 96.192C335.633 96.304 335.333 96.392 335.005 96.456C334.677 96.52 334.357 96.552 334.045 96.552C333.573 96.552 333.209 96.436 332.953 96.204C332.705 95.972 332.581 95.652 332.581 95.244C332.581 94.748 332.665 94.276 332.833 93.828C333.001 93.38 333.229 93.02 333.517 92.748C333.813 92.468 334.141 92.328 334.501 92.328ZM333.193 94.668C333.201 94.852 333.297 95 333.481 95.112C333.665 95.224 333.909 95.28 334.213 95.28C334.741 95.28 335.245 95.22 335.725 95.1C335.589 94.588 335.397 94.2 335.149 93.936C334.901 93.664 334.609 93.528 334.273 93.528C333.985 93.528 333.737 93.644 333.529 93.876C333.321 94.1 333.209 94.364 333.193 94.668ZM333.385 89.508C333.489 89.628 333.637 89.768 333.829 89.928C334.021 90.088 334.221 90.232 334.429 90.36L333.709 91.26C333.509 91.132 333.309 90.992 333.109 90.84C332.909 90.68 332.753 90.536 332.641 90.408L333.385 89.508ZM335.605 91.26C335.397 91.132 335.193 90.992 334.993 90.84C334.793 90.68 334.641 90.536 334.537 90.408L335.257 89.508C335.361 89.636 335.513 89.78 335.713 89.94C335.913 90.092 336.121 90.232 336.337 90.36L335.605 91.26ZM338.618 99.096L338.258 90.048L339.458 89.664L339.398 98.94L338.618 99.096Z" fill="#FDFDFD"/>
</svg>
