<svg width="147" height="109" viewBox="0 0 147 109" fill="none" xmlns="http://www.w3.org/2000/svg">
<path d="M36.8087 29.6214L58.4028 47.4285L86.1764 21.7452L98.6728 29.8611L125.76 3.76689L163.455 35.4087L165.274 33.2513L125.622 0L98.3295 26.2997L85.8674 18.218L58.2998 43.6959L36.5684 25.8203L-2.5 66.5027L-0.474484 68.4546L36.8087 29.6214Z" fill="#3032AD"/>
<path d="M98.5007 35.854L86.2446 28.7654L58.7113 51.0928L37.1859 35.4773L-1.95117 70.9545L-0.268964 72.8037L37.3576 38.7305L58.78 54.3117L86.4849 31.8474L98.7753 38.936L125.897 16.095L163.489 43.9014L164.999 41.8468L125.794 12.876L98.5007 35.854Z" fill="#3032AD"/>
<path d="M98.6387 45.4083L86.5886 39.3471L59.0896 58.4897L37.7702 45.1001L-1.43555 75.3722L-0.027985 77.1871L37.9075 47.8397L59.1583 61.195L86.7945 41.9839L98.8447 48.0451L126.035 28.4573L163.489 52.3599L164.725 50.4765L125.932 25.7178L98.6387 45.4083Z" fill="#3032AD"/>
<path d="M163.523 60.8175L164.45 59.0711L126.103 38.5244L104.68 51.3661L99.8741 49.0375L78.2801 48.9347L64.7194 62.8037H64.6851L59.5354 65.8172L38.3534 54.6878L-0.886719 79.8232L0.177535 81.5012L38.4564 56.9822L59.5354 68.0773L56.1367 71.5703L38.937 64.242L-0.371757 84.3092L0.417851 85.8502L39.0056 66.1597L54.8321 72.8716L50.5065 77.3233L45.0479 75.5769L37.2891 67.8034L29.187 75.9193L30.4916 77.2206L0.143204 88.7952L0.658166 90.165L31.6245 78.3507L37.2891 84.001L44.3956 76.9124L49.3392 78.4877L43.812 84.138L40.2416 83.3504H40.1042L35.2636 84.5489L32.3455 81.6381L27.4018 86.5351L0.623835 93.3155L0.932812 94.4456L28.3288 87.5282L32.3455 91.5348L37.3234 86.5693L36.2592 85.542L40.1386 84.5489L42.8507 85.1311L42.4044 85.5763L40.1386 92.9388L1.10447 97.8358L1.20746 98.7261L39.8296 93.8634L37.2204 102.356H1.55077V103.007H37.0145L35.1606 108.999H136.848L135.029 103.007H163.317V102.356H134.857L131.458 91.0554L163.42 94.5825L163.489 93.6922L131.149 90.1308L129.673 85.1996H94.7932L95.9604 84.0353L99.2218 84.6174L122.498 79.0356L125.313 81.8436L128.609 78.5219L136.78 80.3026L134.205 82.8709L139.148 87.8364L144.126 82.8709L142.891 81.6381L163.455 86.1584L163.729 85.0283L141.346 80.1314L139.148 77.9397L137.741 79.3438L129.605 77.5631L130.257 76.8782L125.313 71.9127L120.335 76.8782L121.537 78.0767L99.1875 83.4189L96.956 83.0079L107.255 72.5634L126.446 65.646L127.407 65.9542L126.343 67.0158L134.445 75.0975L139.629 69.9265L163.489 77.7343L163.935 76.3645L140.762 68.7965L142.547 67.0158L134.445 58.9341L128.575 64.7899L126.652 64.1735L126.412 64.105L109.624 70.132L120.507 59.0711L117.314 57.5301L126.309 53.2153L163.523 69.2759L164.21 67.7007L126.274 51.3318L115.357 56.5712L106.843 52.4277L126.171 40.8188L163.523 60.8175ZM37.2891 80.5766L34.0963 77.4261L32.9634 76.296L32.5858 75.9193L37.2891 71.2278L40.0356 73.9674L41.9924 75.9193L41.8551 76.0563L37.2891 80.5766ZM29.4617 86.5693L30.217 85.816L32.3455 83.6928L33.6157 84.9599L34.6113 85.9529L35.2636 86.5693L32.3455 89.4801L30.011 87.1173L29.4617 86.5693ZM140.281 81.0902L142.067 82.8709L139.148 85.7817L136.265 82.8709L138.462 80.6793L139.148 79.9944L140.247 81.056H140.281V81.0902ZM122.395 76.8782L125.313 74.0016L128.197 76.8782L127.888 77.1864L126.927 78.1452L125.313 79.7889L124.18 78.6589L123.219 77.7L122.395 76.8782ZM131.115 65.646L134.445 62.3243L139.148 67.0158L138.222 67.9404L137.054 69.1047L134.445 71.7073L129.742 67.0158L129.948 66.8103L131.115 65.646ZM104.406 72.0155L102.037 74.4126L94.1065 82.4943L93.1109 83.5216L84.4253 92.3224L83.3953 93.384L74.5723 102.356L73.92 103.007L71.4139 105.575L70.5556 103.007L70.3496 102.356L67.9465 95.1989L67.6718 94.3428L65.509 87.8706L65.1314 86.7748L74.641 77.0151L76.9068 74.6865H76.9411L76.9755 74.6523L88.6823 62.701L89.9868 61.3312L95.5484 55.6809L97.0247 54.1741L99.5651 51.5715L102.209 52.8728L104.371 53.9002L112.611 57.8725L114.568 58.8314L116.456 59.756L104.406 72.0155ZM127.888 87.5967L128.575 89.8226L128.849 90.7814L132.351 102.356L132.523 103.007L133.621 106.602H103.856L104.886 103.007L105.058 102.356L107.77 92.8018L108.045 91.843L109.246 87.5967H127.888ZM105.47 92.1854L105.195 93.11L102.552 102.356L102.38 103.007L101.35 106.602H73.7484L77.2845 103.007L77.9024 102.356L87.1717 92.9388L88.2016 91.8772L92.4243 87.5967H106.775L105.47 92.1854ZM38.3877 106.602L39.4863 103.007L39.6923 102.356L42.2327 93.9319L42.5074 93.0758L44.1553 87.5967H62.8999L63.1745 88.4185L65.2344 94.6168L65.5433 95.4729L67.8092 102.356L68.0495 103.007L69.2511 106.602H38.3877ZM46.5927 84.7201L51.914 79.3095L53.0469 78.1452L57.201 73.8989L58.5055 72.5634L67.1569 63.6941L72.3408 58.3519L72.4095 58.2834L79.2413 51.3318H96.4067L94.6215 53.1468L93.1453 54.6878L87.4464 60.4751L84.2879 63.6941L71.8602 76.3987H71.8259L69.5257 78.7616L63.2432 85.1653H46.1464L46.5927 84.6859V84.7201Z" fill="#3032AD"/>
</svg>
